<svg version="1.2" xmlns="http://www.w3.org/2000/svg" viewBox="0 0 500 500" width="200" height="200">
	<title>29847202_7642392-svg</title>
	<style>
		.s0 { fill: #f2dbde } 
		.s1 { fill: #f2bfc6 } 
		.s2 { opacity: .1;fill: #2d3038 } 
		.s3 { fill: #2d3038 } 
		.s4 { fill: none;stroke: #ffffff;stroke-linecap: round;stroke-linejoin: round } 
	</style>
	<g id="OBJECTS">
		<g id="Layer">
			<path id="Layer" class="s0" d="m381 363c-54 8.5-84.4 11.1-138.8 6.1-54.4-5-109.5-25.8-144.8-67.5-23.4-27.8-36.7-63-43.7-98.7-3.7-19-5.8-39.2 0.4-57.6 7.5-22.4 26.6-39.6 48.2-49.1 21.5-9.6 45.5-12.4 69.1-13 47.8-1.2 95.7 6.3 140.9 21.8 35.6 12.3 69.9 30 97 56.2 27 26.2 46.2 61.7 47.9 99.4 1.8 37.6-18.8 93.4-76.2 102.4z"/>
			<g id="Layer">
				<path id="Layer" class="s1" d="m314.5 248.2c-22.4 36.4-29.3 81.8-19.6 123.4 27.3-0.2 52-3.3 86.1-8.6 57.4-9 78-64.8 76.2-102.4-1.5-32.4-15.9-63.1-37-87.7-44.7 11.4-83 38.3-105.7 75.3z"/>
				<path id="Layer" class="s1" d="m60.1 229.1c2.2 7.6 4.8 15 7.7 22.3 40.2-5.9 78.1-26.3 104.9-56.9 26.4-30.2 41.7-69.9 42.6-109.9-14.6-1.3-29.2-1.7-43.9-1.4-11.9 0.3-23.9 1.2-35.6 3.2 0.8 56.1-28.6 112-75.7 142.7z"/>
				<path id="Layer" class="s1" d="m365.1 128.6c-16.7-9.6-34.6-17.3-52.8-23.6q-9.7-3.3-19.5-6.1c-1.7 23.3-4.6 46.5-12 68.6-9.2 27.7-26.4 53.9-52 68-22.9 12.7-50.3 14.7-74.4 25.1-21.6 9.5-39.6 25.4-54.4 43.9 8.4 9.4 17.8 17.7 27.9 24.9 16.7-21.4 41.9-37.1 67.2-48.5 35.5-16 74.1-26.7 105.7-49.6 33.6-24.3 56.8-62.1 64.3-102.7z"/>
			</g>
		</g>
		<path id="Layer" class="s2" d="m250.2 413.1c-60.4 0-109.2-8.4-109.2-18.9 0-10.4 48.8-18.9 109.2-18.9 60.4 0 109.3 8.5 109.3 18.9 0 10.5-48.9 18.9-109.3 18.9z"/>
		<g id="Layer">
			<path id="Layer" class="s3" d="m305.1 388.4c-0.1 1.2-0.6 2.3-1.4 3.1-1.9 1.8-4.8 1.7-7.5 1.5-17.9-1.2-36-0.6-53.8 2-7 3.2-16.4 3.2-25.2 2-8.9-1.2-17.6-3.7-26.4-4.7-8.9-0.9-21.9-0.3-26.5 2.8 0 0-7.3 4-12.9 12-3.4 4.8-4.2 11.3-2.4 16.9 2.4 8 10.3 13.4 18.5 14.9 8.1 1.6 16.6 0 24.6-2.3 22.8-6.5 43.8-18.1 66-26.5 22.2-8.3 47-13.2 69.5-5.8 4 1.3 7.9 3 11 5.9 3 2.8 5.1 6.9 4.8 11-0.5 5.4-5 9.8-10.1 11.5-5.1 1.7-10.6 1.3-15.9 0.3-5.3-0.9-10.6-2.1-16-2.4-20.1-0.9-38.4 4.3-56.1 10.9-17.7 6.6-35.1 14.2-53.6 18.1-18.4 3.8-35.8 8.1-51.6-4.2-20.4-15.8-19.6-41.2-8.1-63.3 5.5-10.6 12.6-18.7 19.4-27.7-1.7-12.6-6.9-25-9.5-37.6-4.1-20.2-1.3-41.8 7.7-61.3 5.6-15.4 11.2-30.9 19.1-45.4 7.8-14.4 18-27.8 31.3-37.5 13.3-9.7 29.9-15.3 47-13.2 7.8-8.4 16-16.4 24.7-23.9-1.3-7.3-1.2-14.6 0.6-21-4.1-8.8-8.2-17.9-9.6-27.5-0.8-6.1-0.4-12.4 1.6-18 1.9-5.2 8.4-6.8 12.5-3.1 6.7 6.1 12.7 12.9 17.9 20.2 18.4-4.8 38.2-4.2 56.3 1.6 6.5-8 14.4-14.9 23.3-20.1 2.3-1.4 5.5-2.6 7.6-0.8 1.7 1.3 1.8 3.9 1.6 6-0.8 12.2-3.4 24.3-8 36.6 4.9 15.8 0.8 33.9-9.8 46.4-2.2 12 1.2 24.4 2.5 36.7 2.3 21.4-2 43.4-12.3 62.7-2.4 4.5-5.7 8.5-9.8 11.5q-2.6 1.9-5 3.9c-5.2 20.9-10.2 41.4-15.4 62.3q3.1 11.7 7.3 23.2c3.2-0.9 6.5-1.7 9.8-1.9 3.9-0.1 7.9 0.8 11 3.2 2.3 1.8 4 4.3 4.7 7.2 0.5 2 0.4 4.2-0.6 6.1-0.6 1.2-1.8 2.1-3.1 2.6 0.5 1.7 0.6 3.6 0.1 5.3-0.8 3-3.6 5.6-6.7 5.4q0 0.2-0.1 0.3c-1 2-3.1 3.3-5.2 3.8-2.1 0.4-4.2 0.3-6.4 0.1q-0.2 0.4-0.5 0.7c-1.5 1.6-4.1 1.3-6.3 0.8-3-0.6-6-1.4-8.7-3-2.6-1.6-4.9-4-5.7-7-1.2-4.6 2.1-10.1 0.2-14.3-3.6-7.6-7.8-14.9-12-22.1-8.8 7-18.2 13.2-28.2 18.3 7-0.9 14.3-1.3 21.5-0.3 3.3 0.5 6.6 1.3 9.3 3.2 2.7 2 4.6 5.2 4.2 8.5-0.4 2.7-2.6 5-5.2 5.4z"/>
			<path id="Layer" fill-rule="evenodd" class="s4" d="m151.5 379.1c0.5-3.9 0.6-7.7 0.2-11.6"/>
			<path id="Layer" fill-rule="evenodd" class="s4" d="m296.4 98.6q2.6 3.9 4.9 8"/>
			<path id="Layer" fill-rule="evenodd" class="s4" d="m273.7 153.6q-0.9-2.9-1.6-5.9"/>
			<path id="Layer" fill-rule="evenodd" class="s4" d="m295.2 106.8c-4.8-7.9-10.5-15.3-16.9-22-1.8-2-4.1-4-6.8-3.6-2.9 0.4-4.6 3.6-5.1 6.5-1.7 8.2 1.4 16.6 4.5 24.5"/>
			<path id="Layer" fill-rule="evenodd" class="s4" d="m352.8 98.3q1.7 0.6 3.3 1.2"/>
			<path id="Layer" fill-rule="evenodd" class="s4" d="m363.5 168.2q-1.6 1.6-3.4 3.1"/>
			<path id="Layer" fill-rule="evenodd" class="s4" d="m295.6 130.1c3.8-4.9 10.8-7.1 16.8-5.5 6 1.7 10.8 7.2 11.4 13.1-4.6 3.6-11.6 3.7-16.3 0.2-3.2-2.3-5.1-6.1-5.4-10"/>
			<path id="Layer" fill-rule="evenodd" class="s4" d="m363.1 126.8c-1.8-2.6-5.2-4-8.3-3.7-3.2 0.4-6.1 2.4-7.8 5-1.7 2.7-2.4 6-1.8 9.9 4.7 1.9 10.7 0.1 13.6-4.1 1.5-2.1 2.1-4.8 1.8-7.4"/>
			<path id="Layer" fill-rule="evenodd" class="s4" d="m351 171c-4.3 4.4-10.8 6.5-16.8 5.5"/>
			<path id="Layer" fill-rule="evenodd" class="s4" d="m338.7 282.7c-5.4 4.9-10.3 10.3-14.6 16.3"/>
			<path id="Layer" fill-rule="evenodd" class="s4" d="m333.8 368.4q1.2 3 2.4 6c2.2-0.6 4.5-1.2 6.9-1.3 2.3-0.1 4.7 0.4 6.6 1.8 1.6 1.1 2.7 2.7 3.6 4.4q0.4 0.8 0.7 1.5"/>
			<path id="Layer" fill-rule="evenodd" class="s4" d="m317.1 283.3c0.5 18.8 3.1 37.6 7.7 56"/>
			<path id="Layer" fill-rule="evenodd" class="s4" d="m337.8 376.8c2.9-0.6 5.9 1 7.7 3.4 1.8 2.3 2.6 5.2 3 8.1 0.2 1.2 0.3 2.5 0.2 3.7"/>
			<path id="Layer" fill-rule="evenodd" class="s4" d="m327.2 380.6c3.1-0.3 6.1 1.6 7.8 4.3 1.6 2.6 2.1 5.8 2.3 8.9 0 0.7 0 1.5-0.1 2.2"/>
			<path id="Layer" fill-rule="evenodd" class="s4" d="m305.1 385.8q-0.1-0.3-0.2-0.6c-1-4.1-4.7-7.4-8.9-8"/>
			<g id="Layer">
				<path id="Layer" fill-rule="evenodd" class="s4" d="m250.4 264.8q-2.5-4.7-4.4-9.6c-5.1-12.9-7-27.1-5.3-40.8"/>
				<path id="Layer" fill-rule="evenodd" class="s4" d="m302.3 351.2c-7.7-12.9-15.1-25.4-19.5-39.7"/>
				<path id="Layer" fill-rule="evenodd" class="s4" d="m272.4 372.1c-3.3 0.5-6.6 1.2-9.7 1.9 10.8-22.7 21.9-46.8 19.9-71.9-0.8-10.1-4-20.3-11.2-27.5-8.5-8.5-21.5-11.4-33.5-9.8-22 2.9-41.3 20.6-46.2 42.3"/>
			</g>
			<g id="Layer">
				<path id="Layer" fill-rule="evenodd" class="s4" d="m328.6 152.1c1.4-0.4 2.8 0.5 3.7 1.5 1 1.1 1.6 2.4 2.6 3.5 0.9 1 2.4 1.8 3.7 1.3 1.1-0.3 1.8-1.2 2.3-2.1 0.5-0.9 0.8-1.9 1.5-2.7 1.3-1.5 3.5-2 5.2-1.3"/>
				<path id="Layer" fill-rule="evenodd" class="s4" d="m360.7 158.2c-2.1 5-7.3 8.5-12.7 8.8-2 0.1-4-0.3-5.6-1.3-1.9-1.3-3-3.3-3.9-5.4-0.1 1.2-0.5 2.3-1.1 3.3-1.2 1.8-3.2 3.1-5.2 4-3.3 1.6-7 2.4-10.6 1.9-3.6-0.5-7.1-2.4-9.1-5.5"/>
				<path id="Layer" fill-rule="evenodd" class="s4" d="m338.3 158.5c0 0 0.2 1.1 0.2 1.8"/>
			</g>
		</g>
	</g>
</svg>