<?xml version="1.0" encoding="UTF-8"?><svg id="Layer_1" xmlns="http://www.w3.org/2000/svg" xmlns:xlink="http://www.w3.org/1999/xlink" viewBox="0 0 2083.96 2622.88"><defs><style>.cls-1{fill:url(#linear-gradient-2);}.cls-2{fill:url(#linear-gradient-6);}.cls-3{clip-path:url(#clippath-2);}.cls-4{fill:#fff5f0;}.cls-5{clip-path:url(#clippath-6);}.cls-6{fill:#d3d3d3;}.cls-6,.cls-7,.cls-8{fill-rule:evenodd;}.cls-9{clip-path:url(#clippath-1);}.cls-10{clip-path:url(#clippath-4);}.cls-11{fill:url(#linear-gradient-5);}.cls-12{clip-path:url(#clippath);}.cls-13{clip-rule:evenodd;}.cls-13,.cls-14{fill:none;}.cls-15{clip-path:url(#clippath-3);}.cls-16{fill:url(#linear-gradient-7);}.cls-7{opacity:.47;}.cls-7,.cls-8{fill:#ccc;}.cls-17{fill:url(#linear-gradient-3);}.cls-18{clip-path:url(#clippath-5);}.cls-19{fill:url(#linear-gradient);}.cls-20{fill:url(#linear-gradient-4);}</style><clipPath id="clippath"><path id="SVGID" class="cls-14" d="M1754.9,2060.74c-44.16,80.72-102.34,151.52-170.81,209.82-63.85,54.36-136.51,97.73-214.95,128.01,6.04,17.37,9.33,36.04,9.33,55.47,0,46.61-18.91,88.82-49.46,119.37-30.55,30.56-72.77,49.46-119.38,49.46s-88.82-18.9-119.37-49.46c-30.55-30.55-49.46-72.76-49.46-119.37,0-2.67,.06-5.31,.19-7.95-87.38-7.04-172.54-29.42-251.6-65.77-85.91-39.5-164.58-95.41-231.04-165.91-21.56-5.98-43.15-13.34-64.82-21.76-46.88,11.35-99.66,9.38-148.11,8.6l10.47-34.81c3-9.99,5.28-20.16,6.81-30.41,.97-6.44,1.66-12.79,2.06-19.02-45.55-1.49-92.42-14.86-120.41-33.49l21.85-23.75c9.81-10.66,19.32-21.86,28.51-33.55,2.18-2.78,4.33-5.55,6.43-8.33-40.84-8.2-77.68-25.56-117.93-47.26l35.17-25.83c15.11-11.1,29.53-23.51,43.12-37.1h.1c11.75-11.74,22.75-24.33,32.92-37.67-.88-30.16-.78-65.97,1.26-104.14-79.06-28.36-141.82-104.27-188.24-227.74-47.09-125.22-78.22-301.19-93.37-527.9v-.54C0,713.53,24.37,512.78,78.49,398.34c32.14-67.96,75.23-107.6,127.6-120.55,51.51-12.74,109.73,1.36,173.18,40.62,121.48,75.17,267.12,246.54,424.63,500.72,135.74-64.56,293.57-73.77,370.87-67.69,30.26-203.13,157.38-496.71,226.04-583.12C1534.56,0,1692.68,5.62,1859.12,464.07l.32,1.08c214.89,673.34,224.51,1034.2,28.9,1082.63,17.68,44.75,31.34,86.07,39.57,116.33,20.32,6.3,39.43,12.31,55.33,17.73l22.93,7.81-4.68,23.6c-5.91,29.81-20.42,54.69-41.03,73.44h.05c37.57,7.67,78.29,5.03,116.62,4.86-28.05,39.3-92.56,107.3-162.63,131.65,8.08,5.79,16.44,11.03,25.03,15.68l51.43,27.8c-63.4,25.85-115.12,47.11-166.75,41.06l.45,.55c-25.07,20.32-47.93,37.99-69.76,52.45"/></clipPath><linearGradient id="linear-gradient" x1="1419.41" y1="2988.2" x2="704.46" y2="-188.05" gradientTransform="matrix(1, 0, 0, 1, 0, 0)" gradientUnits="userSpaceOnUse"><stop offset="0" stop-color="#fff5f0"/><stop offset=".42" stop-color="#ffcc81"/><stop offset=".78" stop-color="#ff6b00"/></linearGradient><clipPath id="clippath-1"><path id="SVGID-2" class="cls-14" d="M1332.8,1771.74c1.5,11.24,2.18,22.6,2.06,34-.07,6.88-.42,13.7-1.06,20.43,13.63,2.48,27.08,7.14,39.88,14.11,38.75,21.13,59.93,53.32,66.79,88.2,4.67,23.79,2.52,48.75-5.37,72.12-7.81,23.13-21.3,44.79-39.35,62.24-29.61,28.62-71.43,46.1-120.7,40.71-33.07-3.61-63.02-17.77-86.27-39.15-11.92-10.97-21.36-20.77-28.59-32.11-20.4,5.56-41.54,8.37-62.82,8.35-27.6-.03-55.3-4.82-81.79-14.59-39.75-14.65-74.12-39.41-100.37-70.99-22.43-26.97-38.88-58.85-47.66-93.59-57.83-24.04-93.9-85.54-73.11-142.1,15,55.81,64.8,95.46,122.58,97.42,28.97,.98,56.56-7.54,79.23-23.15,22.63-15.58,40.42-38.31,49.83-65.75l16.89-49.2,31.26,41.64c18.37,24.47,43.74,41.53,71.76,49.88,27.98,8.34,58.56,7.95,87.35-2.48,57.71-20.89,94.99-77.12,91.88-138.4,22.18,49.08,14.52,103.26-12.39,142.4"/></clipPath><linearGradient id="linear-gradient-2" x1="1364.08" y1="3000.66" x2="649.13" y2="-175.6" xlink:href="#linear-gradient"/><clipPath id="clippath-2"><path id="SVGID-3" class="cls-14" d="M522.62,1034.31l.04,31.1c-46.82-5.6-79.73-9.94-125.53,10.89,5.87,41.62,39.72,90.54,74.11,115.18-29.94-.22-83.83,1.39-119.15,29.72-1.97,30.21,11.67,67.23,27.71,89.02-49.12-7.11-85.9-91.12-92.09-125.43,34.11-12.56,62.37-22.18,99.43-25.71-30.41-35.46-43.28-64.09-59.26-106.41,31.13-19.45,54.91-33.48,92.01-41.76,15.44-3.45,31.17-5.33,46.96-5.62-4.14-86.99-26.38-171.25-64.28-247.8-42.04-84.93-103.39-160.33-180.71-219.44,243.57,108.15,300.6,359.48,300.76,496.25"/></clipPath><linearGradient id="linear-gradient-3" x1="864.95" y1="3113" x2="150" y2="-63.26" gradientTransform="matrix(1, 0, 0, 1, 0, 0)" gradientUnits="userSpaceOnUse"><stop offset="0" stop-color="#f0f"/><stop offset="1" stop-color="#ff0"/></linearGradient><clipPath id="clippath-3"><path id="SVGID-4" class="cls-14" d="M1626.2,337.04c-59.29,76.99-97.72,185.15-116.37,278.18-16.79,83.75-16.47,170.89,2.04,256,53.89-13.48,93.91-6.23,146.42,9.83-4.48,45.04-9.91,76.85-29.7,118.08,26-4.38,52.79-5.4,79.7-2.95l23.12,2.11c3.9,46.62-15.29,119.69-64.57,146.44,9.94-23.18,17.59-66.24,11.66-94.73-48.6-11.22-87.11-.96-122.74,2.22,28.9-29.88,46.83-93.1,41.81-130.52-32.14-5.28-64.99-1.71-95.27,10.41l-28.88,11.57-8.03-30.14c-27.29-102.35-30-208.07-9.74-309.12,15.14-75.56,88.57-263.97,170.56-267.39"/></clipPath><linearGradient id="linear-gradient-4" x1="2058.81" y1="2844.27" x2="1343.86" y2="-331.98" xlink:href="#linear-gradient-3"/><clipPath id="clippath-4"><path id="SVGID-5" class="cls-13" d="M1031.15,1382.85c107.22-13.26,200.89,30.67,209.23,98.12,8.34,67.46-71.81,132.88-179.02,146.14-107.22,13.26-200.89-30.67-209.24-98.13-8.34-67.46,71.81-132.88,179.03-146.14"/></clipPath><linearGradient id="linear-gradient-5" x1="937" y1="1694.2" x2="1155.49" y2="1315.76" xlink:href="#linear-gradient"/><clipPath id="clippath-5"><path id="SVGID-6" class="cls-13" d="M1311.53,1138.35c53.65,0,97.15,43.5,97.15,97.16s-43.5,97.16-97.15,97.16-97.16-43.5-97.16-97.16,43.5-97.16,97.16-97.16"/></clipPath><linearGradient id="linear-gradient-6" x1="1692.22" y1="2926.79" x2="977.27" y2="-249.46" xlink:href="#linear-gradient"/><clipPath id="clippath-6"><path id="SVGID-7" class="cls-13" d="M722.56,1309.83c-70.75,37.95-109.95,116.35-97.86,195.72,21.36-97.58,99.01-172.92,197.19-191.34-65.96-48.96-152.09-61.58-229.32-33.59,45.31-3.86,90.7,6.33,130,29.21"/></clipPath><linearGradient id="linear-gradient-7" x1="1086.3" y1="3063.18" x2="371.35" y2="-113.08" xlink:href="#linear-gradient"/></defs><g class="cls-12"><rect class="cls-19" width="2083.96" height="2622.88"/></g><path class="cls-4" d="M755.19,845.44c-152.42-245.56-291.23-409.86-404.85-480.17-50.44-31.21-94.55-42.96-131.08-33.93-35.66,8.82-66.32,38.57-90.9,90.55-50.37,106.49-72.83,298.26-59.17,584.68,14.83,221.38,44.8,392.11,89.94,512.14,37.4,99.47,84.46,162.64,141.18,189.51,9.77-92.63,32.69-189.36,80.96-248.59-36.74,122.31-43.47,347.67-27.29,475.44l-47.99,6.07c-1.81,1.88-3.64,3.73-5.48,5.58l.06,.05c-4.69,4.7-9.52,9.3-14.47,13.81,32.75,27.17,88.9,55.03,130.8,55.69-18.31,3.69-35.38,5.78-51.53,6.48-8.86,13.2-17.96,25.75-27.26,37.59-2.54,3.23-5.12,6.44-7.74,9.64,30.29,15.25,104.31,33.57,135.76,20.55-12.37,10.31-28.27,17.31-46.01,21.53-.31,10.97-1.25,21.64-2.79,31.96l-.28,1.84c47.6-3.34,144.35-16.22,185.84-34.91-10.64,20.26-23.84,36.06-38.93,48.38,100.87,32.99,186.33,41.18,254.51,36.68-30,15.03-59.78,24.74-89.46,30.04,140.21,61.03,291.78,81.49,438.6,63.34,4.66-.58,9.31-1.2,13.96-1.85,2.4-.41,4.82-.75,7.26-1.05,149.33-22.32,292.85-84.75,413.46-185.15-24.47-4.29-50.78-13.62-80.3-28.7,82.77-8.63,172.22-40.8,239.99-86.47-18.68-10.98-37.92-26.41-58.2-47.29,51.92,18.25,99.38,42.96,159.82,14.59-8.84-7.51-17.32-15.63-25.34-24.3-20.05-4.69-39.63-15.05-58.05-32.82,54.38,4.6,134.5-24.76,166.16-56.33-19.64-4.21-38.7-10.26-56.87-18.04-17.81,3.78-36.99,4.99-57.03,3.34,15.37-3.05,94.81-63.12,107.28-100.14-23.8-7.69-118-32.73-143.33-103.88,19.29,7.35,43.54,15.35,68.99,23.4-29.28-99.29-79.81-222.73-151.58-370.36,57.51,36.01,112.07,129.83,152.82,221.6,166.26-30.24,146.51-367.92-59.29-1013.09-140.69-387.45-263.64-405.65-363.34-280.19-113.65,143.04-213.1,472.28-270.78,682.21-4.8-22.2-5.99-48.79-4.28-78.46-172.25-13.52-396.86,44.6-534.2,148.85,32.52-45.61,74.26-81.58,120.46-109.82"/><g class="cls-9"><rect class="cls-1" x="773.63" y="1629.33" width="671.5" height="479.6"/></g><path class="cls-4" d="M1075.95,2350.92c-115.46,1.51-231.76-19.25-342.15-63.14,25.27,15.87,51.49,30.04,78.47,42.44,75.44,34.69,156.89,55.66,240.4,61.49,5.86-14.74,13.73-28.45,23.28-40.8"/><path class="cls-4" d="M1194.58,2341.47l-2.91,.42c-24.17,3.85-45.81,15.31-62.35,31.85-20.54,20.53-33.26,48.94-33.26,80.3s12.72,59.76,33.26,80.3c20.54,20.55,48.94,33.26,80.3,33.26s59.77-12.72,80.3-33.26c20.55-20.54,33.26-48.93,33.26-80.3s-12.71-59.77-33.26-80.3c-20.54-20.55-48.93-33.26-80.3-33.26-5.1,0-10.12,.34-15.04,.99"/><path class="cls-4" d="M1342.38,2349.72c75.54-28.2,145.25-69.25,206.09-121.05,25.67-21.86,49.79-45.65,72.14-71.23-94.1,74.57-200.43,128.08-312.18,159.68,7.32,5.29,14.21,11.16,20.58,17.53,4.75,4.75,9.22,9.77,13.37,15.06"/><g class="cls-3"><rect class="cls-17" x="221.86" y="538.06" width="300.79" height="772.18"/></g><g class="cls-15"><rect class="cls-20" x="1435.39" y="337.04" width="299.92" height="807.69"/></g><g class="cls-10"><rect class="cls-11" x="843.78" y="1369.59" width="404.94" height="270.78"/></g><path class="cls-4" d="M1113.24,1998.7c10.8-.88,21.54-2.65,32.08-5.3h.02l39.37-12.82c4.61,23.66,15.16,37.82,32.07,53.37,16.91,15.56,38.66,25.85,62.63,28.47,35.91,3.93,66.26-8.69,87.67-29.38,13.24-12.79,23.12-28.64,28.83-45.55,5.63-16.68,7.2-34.35,3.91-51.07-4.61-23.46-19.16-45.27-45.9-59.86-21.3-11.61-45.3-13.91-67.2-8.16-13.31,3.5-25.83,9.98-36.48,19.16,34.14,15.29,57.07,45.65,52.6,76.5-20.35-40.28-76.8-54.39-120.36-42.67-21.77,5.86-39.98,18.94-52.38,36.13-8.68,12.03-14.54,26.1-16.85,41.18"/><path class="cls-4" d="M1203.5,1877.36c18.49-24.75,44.36-41.5,72.69-48.95,5.3-1.4,10.7-2.46,16.15-3.19,.6-5.32,.99-10.64,1.16-15.94-6.72,4.09-13.87,7.55-21.39,10.28-40.28,14.58-82.93,15.17-121.9,3.55-25.64-7.64-49.74-20.6-70.55-38.34-13.63,21.6-31.44,39.98-52.13,54.22-32.17,22.16-71.26,34.25-112.26,32.86l-1.26-.06c7.74,20.85,18.92,40.05,32.91,56.88,21.6,25.97,49.98,46.39,82.89,58.51,13.73,5.06,27.77,8.52,41.86,10.42,2.69-23.51,11.45-45.55,24.91-64.21,17.88-24.79,44.02-43.6,75.22-52,10.69-2.88,21.35-4.13,31.71-4.03"/><path class="cls-8" d="M1102.35,2491.39c-.62-55.79,39.44-103.75,94.46-113.05,55.01-9.31,108.62,22.8,126.38,75.7,.03-45.17-26.7-86.06-68.09-104.15-41.39-18.09-89.56-9.95-122.69,20.75-33.14,30.69-44.94,78.1-30.06,120.75"/><g class="cls-18"><rect class="cls-2" x="1214.37" y="1138.35" width="194.32" height="194.32"/></g><g class="cls-5"><rect class="cls-16" x="592.56" y="1252.63" width="229.32" height="252.92"/></g><path class="cls-6" d="M219.26,331.34c-35.66,8.82-66.32,38.57-90.9,90.55-38.32,81.02-60.49,211.4-62.88,395.27,37.16-672.53,432.21-220.01,623.89,77.09,20.4-18.4,42.55-34.58,65.82-48.81-152.42-245.56-291.23-409.86-404.85-480.17-50.44-31.21-94.55-42.96-131.08-33.93"/><path class="cls-6" d="M1443.99,202.66c-113.65,143.04-213.1,472.28-270.78,682.21,154.36-370.46,392.77-1010.04,663.66-307.3-9.38-30.8-19.24-62.37-29.55-94.72-140.69-387.45-263.64-405.65-363.34-280.19"/><path class="cls-7" d="M1791.48,915c8.76-214.94-209.01-245.41-165.28-577.95-59.29,76.99-97.72,185.15-116.37,278.18-16.79,83.75-16.47,170.89,2.04,256,53.89-13.48,93.91-6.23,146.42,9.83-4.48,45.04-9.91,76.85-29.7,118.08,26-4.38,52.79-5.4,79.7-2.95l23.12,2.11c3.16,37.79-8.85,92.95-39.75,126.73,60.13-53.19,96.5-128.92,99.81-210.03"/><path class="cls-6" d="M221.86,538.06c154.12,249.03-72,349.39-12.85,571.13,21.87,81.97,75.87,151.57,149.66,193.14-38.3-23.18-65.7-88.33-70.97-117.52,34.11-12.56,62.37-22.18,99.43-25.71-30.41-35.46-43.28-64.09-59.26-106.41,31.13-19.45,54.91-33.48,92.01-41.76,15.44-3.45,31.17-5.33,46.96-5.62-4.14-86.99-26.38-171.25-64.28-247.8-42.04-84.93-103.39-160.33-180.71-219.44"/><path class="cls-6" d="M381.27,1459.63c-141.12,85.76-243.36-41.71-306.7-382.41,16.16,187.38,44.34,334.56,84.55,441.49,37.4,99.47,84.46,162.64,141.18,189.51,9.77-92.63,32.69-189.36,80.96-248.59"/><path class="cls-6" d="M1924.52,899.24c27.4,328.91-42.84,453.94-210.73,375.09,57.51,36.01,112.07,129.83,152.82,221.6,125.8-22.88,145.11-221.77,57.9-596.69"/><path class="cls-6" d="M455.33,1951.87c-83.48-149.69-109.79-324.61-74.06-492.24-36.74,122.31-43.47,347.67-27.29,475.44l-47.99,6.07c-1.81,1.88-3.64,3.73-5.48,5.58l.06,.05c-4.69,4.7-9.52,9.3-14.47,13.81,32.75,27.17,88.9,55.03,130.8,55.69-18.31,3.69-35.38,5.78-51.53,6.48-8.86,13.2-17.96,25.75-27.26,37.59-2.54,3.23-5.12,6.44-7.74,9.64,30.29,15.25,104.31,33.57,135.76,20.55-12.37,10.31-28.27,17.31-46.01,21.53-.31,10.97-1.25,21.64-2.79,31.96l-.28,1.84c47.6-3.34,144.35-16.22,185.84-34.91-10.64,20.26-23.84,36.06-38.93,48.38,100.87,32.99,186.33,41.18,254.51,36.68-69.76-5.01-138.2-21.63-202.49-49.18,17.93-25.7,28.87-55.6,31.74-86.79-45.05,25.05-94.99,40.08-146.39,44.04,19.01-17.74,34.59-38.81,45.99-62.18-44.77,17.15-93.4,21.63-140.55,12.95,34.7-2.91,67.16-18.32,91.32-43.39-45.25-2.07-88.63-18.65-123.71-47.28,27.37-.98,54.54-5.11,80.96-12.31"/><path class="cls-6" d="M1761.96,1986.16c-18.68-10.98-37.92-26.41-58.2-47.29,51.92,18.25,99.38,42.96,159.82,14.59-8.84-7.51-17.32-15.63-25.34-24.3-20.05-4.69-39.63-15.05-58.05-32.82,54.38,4.6,134.5-24.76,166.16-56.33-19.64-4.21-38.7-10.26-56.87-18.04-17.81,3.78-36.99,4.99-57.03,3.34,15.37-3.05,94.81-63.12,107.28-100.14-23.8-7.69-118-32.73-143.33-103.88,19.29,7.35,43.54,15.35,68.99,23.4-29.28-99.29-79.81-222.73-151.58-370.36,35.96,97.32,62.02,198.01,77.79,300.56-26.77-4.53-52.88-12.36-77.72-23.32,10.09,88.84,71.49,163.45,156.75,190.42-28.51,41.15-73.34,68.06-123.06,73.85,20.44,14.63,42.92,26.2,66.71,34.33-43.6,6.48-88.11-1.96-126.31-23.96,18.11,41.03,45.1,77.53,79.02,106.87-40.87-12.79-79.54-31.8-114.63-56.35,.19,40.39,16.79,78.97,45.99,106.87-53.17,39.69-112.85,69.81-176.36,89.03,82.77-8.63,172.22-40.8,239.99-86.47"/><path class="cls-8" d="M1355.78,1906.49c51.46,66.71-20.17,149.03-98.41,133.25-32.48-6.56-59.66-28.69-72.66-59.17,4.61,23.66,15.16,37.82,32.07,53.37,16.91,15.56,38.66,25.85,62.63,28.47,35.91,3.93,66.26-8.69,87.67-29.38,13.24-12.79,23.12-28.64,28.83-45.55,5.63-16.68,7.2-34.35,3.91-51.07-4.61-23.46-19.16-45.27-45.9-59.86-21.3-11.61-45.3-13.91-67.2-8.16-13.31,3.5-25.83,9.98-36.48,19.16,34.82-21.76,80.46-13.57,105.54,18.94"/></svg>