<svg xmlns="http://www.w3.org/2000/svg" xmlns:cc="http://creativecommons.org/ns#" xmlns:dc="http://purl.org/dc/elements/1.1/" xmlns:rdf="http://www.w3.org/1999/02/22-rdf-syntax-ns#" id="SVGRoot" width="500" height="500.01" version="1.1" viewBox="0 0 500 500.01401"><metadata><rdf:RDF><cc:Work rdf:about=""><dc:format>image/svg+xml</dc:format><dc:type rdf:resource="http://purl.org/dc/dcmitype/StillImage"/><dc:title/></cc:Work></rdf:RDF></metadata><g transform="translate(-137.5 -46.865)"><path d="m629.69 296.86-242.19 242.19-242.41-242.41 242.19-242.19" fill="#1b395e"/><g fill="#42c1db"><path d="m192.39 281.8 14.977 14.977-14.977 14.977-14.977-14.977"/><path d="m582.04 281.81 14.977 14.977-14.977 14.977-14.977-14.977"/><path d="m387.35 476.5 14.977 14.977-14.977 14.977-14.977-14.977"/><path d="m387.35 86.837 14.963 14.977-14.963 14.977-14.991-14.977"/></g><path d="m342.1 380.75h90.481v-2.0866h-90.481z" fill="#fff"/><path d="m435.87 239.99-1.1068-2.4519-2.634-0.86867s-2.1436-2.69-3.0543-5.7304l-0.40631-1.1629s0.18214-2.2838-3.1384-1.3871c0 0-1.9475 0.37829-2.7741-1.247 0 0-0.35027-0.96673 0.07-3.0263l1.8634 0.29423 1.9475 1.5132 2.62 0.056 1.6112-1.4992 1.261 0.25219s-0.0981 1.7373 1.8074 1.5412c0 0 1.8774-0.67251 0.88268-2.3398l-1.0648-0.58845s-1.7233-1.2049-3.2785-0.49037l-1.4431 1.1349s-1.0508 1.2049-2.4519-0.056c0 0-2.0736-2.4379-3.5027-2.0736 0 0 0.44834-1.6673-1.9475-3.2925l-7.3556-4.9598s0.014-1.0928-2.4238-3.2645c0 0-1.5132-1.5272-7.1314-4.9458 0 0-1.317-2.2557-9.0789-5.6883l-0.014-0.014s-3.2365-4.5114-7.1595-4.0211c0 0-12.652-7.5378-20.54 3.3766 0 0-3.3626 0.18214-5.0999 2.9563 0 0-5.0018-2.8582-10.368 0 0 0-6.1647 2.4939-5.9546 9.5553 0 0-3.993 3.4466-0.37828 8.3084l2.4519 2.0035s-0.89669 3.5867-0.056 7.4117c0 0-2.1296 1.5272 0.6585 3.5867 0 0 1.4991 0.82663 2.8582 0.92471 0 0 0.35027 3.7409 2.4799 6.1367l2.3118 0.67251 1.233-1.4011s1.1489-1.4011 1.317 0l1.8074 0.07 2.55-2.4659 1.9895 0.71455s-0.75658 3.1524-4.3713 4.8057l-1.9755 1.0648s-4.8757 0.0981-7.1595 2.2137c0 0 1.9055 2.4379 3.7128 3.1524l-0.44834 0.49038s2.7321 4.6375 5.7864 4.0351c0 0 2.9282-1.7513 5.0859-1.5132 0 0 1.8354-3.979 8.9809-3.1384l1.8214 0.1261s2.5079-4.0491 9.9336-6.1647c0 0 0.99476-1.4711 0.75658-4.5815v-0.0841c0.88268-0.77059 8.2523-6.7532 19.265-3.0684 0 0 3.4746-0.74256 5.9686-0.68652 0 0 1.4431 2.2557 5.282 2.564l3.2084 0.70053s1.0088 0.7846 3.4046 5.9405l1.1629 0.89669s0.30823 1.4151 3.4606 4.5254c0 0 2.7601-0.51839 1.261-5.9125l-3.2645-3.1384-1.331-4.7636s2.9282 2.4659 4.6516 5.3241l1.0788 1.1349 1.317 0.49038 2.5079 0.95273s1.0508-0.95273 0.54642-2.9002m-75.195 7.2996s2.3818-2.7741 7.4117-2.8862c0 0-2.578 3.0684-7.4117 2.8862" fill="#42c1db"/><g fill="#fff"><path d="m348.3 209.63s1.0928 0.70054 0.2662 2.2557l-1.4011 0.30824s-0.99476-0.67251-0.23818-3.2785c0 0 0.81262-3.6428 4.8197-5.7304 0 0 4.4414-2.606 10.886 0.19615 0 0 0.92471-2.7041 5.0999-3.2365l0.3923-0.42032s2.0175-4.1191 6.9913-5.184c0 0 4.1752-1.4291 9.121 0.63048l3.2785 1.5552s1.9755-0.44834 4.6656 1.4431c0 0 1.0508 0.77059 1.6112 2.2697l0.33625 2.3818s-0.2662-2.0316-2.8722-4.0911c0 0-1.373-1.0788-2.7181-0.63048 0 0-3.3906-2.2557-6.9493-1.9335 0 0-3.2785-0.042-5.226 2.3398 0 0-3.5867-0.72856-8.2243 2.3958 0 0-2.1436 1.4151-4.4834 4.3013 0 0-4.9598-2.2557-9.7935-0.58845 0 0-2.4799 0.67251-4.3433 2.7601l-1.2189 2.2557"/><path d="m356.01 211.59s1.4431-0.61647 3.1384 0.35027c0 0 1.8074 0.96674 2.3398 3.4466 0 0 0.6585 2.2978 0.19615 3.993 0 0-0.23819 1.9055-2.2417 1.8074 0 0-2.1576-0.28021-1.8354-2.3818 0 0 0.42032-3.1944 0-4.6656l-1.5972-2.55"/><path d="m353.35 223.09-1.2189-1.0928s-1.247 0.93871 0.056 1.8494"/><path d="m350.46 231.12-0.22417-0.70054 0.75658-0.36427-1.7373 0.30823 0.33626 0.72856 0.86866 0.028"/></g><path d="m622.38 289.05v-15.132h-15.146v-15.146h-15.146v-15.132h-15.132v-15.146h-15.146v-15.132h-15.132v-15.132h-15.132v-15.146h-15.146v-15.132h-15.118v-15.146h-15.16v-15.132h-15.132v-15.132h-15.118v-15.146h-15.16v-15.132h-15.132v-15.146h-15.132v-15.132h-15.146v-15.132h-15.622v15.132h-15.146v15.132h-15.132v15.146h-15.132v15.132h-15.132v15.146h-15.146v15.132h-15.132v15.132h-15.132v15.146h-15.146v15.132h-15.118v15.146h-15.146v15.132h-15.146v15.132h-15.146v15.146h-15.132v15.132h-15.146v15.146h-15.132v15.132h-15.132v15.622h15.132v15.146h15.132v15.132h15.146v15.132h15.132v15.146h15.146v15.132h15.146v15.146h15.146v15.132h15.118v15.132h15.146v15.146h15.132v15.132h15.132v15.132h15.146v15.146h15.132v15.132h15.132v15.146h15.132v15.132h15.146v15.146h15.622v-15.146h15.146v-15.132h15.132v-15.146h15.132v-15.132h15.16v-15.146h15.118v-15.132h15.132v-15.132h15.16v-15.146h15.118v-15.132h15.146v-15.132h15.132v-15.146h15.132v-15.132h15.146v-15.146h15.132v-15.132h15.146v-15.132h15.146v-15.146h15.118v-15.622zm-15.65 15.79v14.487h-15.132v15.132h-15.118v15.132h-15.16v15.146h-15.132v15.132h-15.132v15.146h-15.146v15.132h-15.132v15.132h-15.132v15.146h-15.146v15.132h-15.118v15.146h-15.146v15.132h-15.146v15.132h-15.146v15.146h-14.459v15.132h-15.958v-15.132h-14.487v-15.146h-15.146v-15.132h-15.146v-15.132h-15.118v-15.146h-15.146v-15.132h-15.146v-15.146h-15.132v-15.132h-15.146v-15.132h-15.132v-15.146h-15.132v-15.132h-15.146v-15.146h-15.118v-15.132h-15.146v-15.132h-15.146v-14.487h-15.118v-15.944h15.118v-14.501h15.146v-15.132h15.146v-15.132h15.118v-15.146h15.146v-15.132h15.132v-15.146h15.132v-15.132h15.146v-15.132h15.132v-15.146h15.146v-15.132h15.146v-15.132h15.118v-15.146h15.146v-15.132h15.146v-15.146h14.487v-15.132h15.958v15.132h14.459v15.146h15.146v15.132h15.146v15.146h15.146v15.132h15.118v15.132h15.146v15.146h15.132v15.132h15.132v15.132h15.146v15.146h15.132v15.132h15.132v15.146h15.16v15.132h15.118v15.132h15.132v14.501h15.16v15.944" fill="#42c1db"/><g fill="#fff"><path d="m218.62 317.54 2.7041 2.7041-7.3977 7.3696 1.8774 1.8914 7.3976-7.3836 2.676 2.6901 1.5972-1.5832-7.2716-7.2716"/><path d="m219.56 333.24 8.9809-8.9668 1.8494 1.8494-3.4186 3.4186 3.5167 3.5027 3.4046-3.4186 1.8634 1.8494-8.9809 8.9809-1.8494-1.8494 3.993-4.0211-3.5027-3.4887-3.993 4.0071"/><path d="m242.47 341.4-4.6235-4.6235-1.8914 1.9054 4.2312 4.2312-1.5552 1.5412-4.2312-4.2312-2.3398 2.3398 4.8477 4.8477-1.5972 1.5972-6.6831-6.6831 8.9809-8.9668 6.4589 6.4449"/><path d="m255.03 352.69-0.95273 1.7794-1.7373 0.9107-1.2049-0.16813 0.2522 1.8214-0.96674 1.6673-1.8214 1.0228-1.345 0.0841-1.4711-0.56043-1.373-1.1489-4.0491-4.0491 8.9809-8.9668 4.3293 4.3293 1.359 3.2785m-5.4502-4.2592-1.9895 1.9895 2.1717 2.1576 1.1769 0.72856 1.1489-0.42032 0.35027-1.317-0.9107-1.2049zm-3.4747 3.4746-2.3958 2.3958 2.1717 2.1576 1.0648 0.75658 1.6953-0.53241 0.40631-1.5272-0.74257-1.0508"/><path d="m249.33 363.02 6.3328 6.3328 1.5832-1.6112-4.4554-4.4414 7.3836-7.3836-1.8634-1.8634"/><path d="m265.89 361.64 1.8914 1.8914-5.4922 5.5062-1.1349 1.5692 0.74257 2.2557 2.2417 0.72856 1.5692-1.1349 5.5062-5.5062 1.8914 1.9054-5.5202 5.5202-2.662 1.7794c-1.5272 0.42032-3.0683-0.15412-4.6235-1.6953-1.5552-1.5552-2.1296-3.0964-1.7093-4.6375l1.7794-2.662"/><path d="m279.83 378.76-4.6235-4.6235-1.8914 1.8914 4.2312 4.2312-1.5552 1.5552-4.2312-4.2312-2.3258 2.3398 4.8477 4.8337-1.5972 1.6112-6.6971-6.6971 8.9809-8.9668 6.4589 6.4589"/><path d="m292.4 390.06-0.95273 1.7794-1.7513 0.9107-1.1909-0.16813 0.2522 1.8214-0.98075 1.6533-1.8214 1.0368-1.345 0.0841-1.4571-0.57444-1.373-1.1349-4.0491-4.0491 8.9668-8.9668 4.3433 4.3293 1.359 3.2785m-5.4642-4.2592-1.9755 1.9755 2.1717 2.1857 1.1629 0.71454 1.1489-0.43433 0.36428-1.303-0.92471-1.1909zm-3.4606 3.4746-2.4098 2.3958 2.1717 2.1576 1.0648 0.74257 1.7093-0.5184 0.3923-1.5412-0.74257-1.0368"/><path d="m295.65 391.39 1.9055 1.9055-5.5062 5.5062-1.1349 1.5692 0.74257 2.2417 2.2417 0.72856 1.5692-1.1349 5.5062-5.5062 1.8914 1.9054-5.5202 5.5062-2.662 1.7934c-1.5272 0.42032-3.0683-0.14011-4.6235-1.6953-1.5552-1.5552-2.1296-3.1104-1.7093-4.6375l1.7934-2.662"/><path d="m295.69 409.38 1.8354 1.8494 3.7689-3.7689 3.965 3.979 1.5552-1.5552-3.965-3.965 2.0596-2.0456 4.5114 4.5114 1.5832-1.5832-6.3749-6.3749"/><path d="m303.3 417 1.8494 1.8354 3.7549-3.7549 3.965 3.965 1.5692-1.5552-3.965-3.965 2.0456-2.0456 4.5114 4.5114 1.5972-1.5692-6.3749-6.3749"/><path d="m321.75 417.5 2.1156 2.1016-5.8144 12.147-2.0316-2.0316 1.261-2.4238-3.3065-3.2925-2.4379 1.2189-1.9475-1.9475zm-5.7164 5.4502 2.2978 2.2978 2.4098-4.6656"/><path d="m319.22 432.92 6.3188 6.3188 1.5972-1.5832-4.4554-4.4554 7.3836-7.4117-1.8774-1.8494"/><path d="m334.53 446.63c-1.373 0.014-2.7041-0.61647-3.993-1.8914-1.275-1.289-1.9055-2.62-1.8914-3.993-0.056-1.7653 0.72856-3.4466 2.3398-5.0579 1.6533-1.6533 3.3346-2.4238 5.0719-2.3538 1.373-0.014 2.7041 0.61647 3.993 1.9055 1.275 1.275 1.9054 2.606 1.8774 3.979 0.0841 1.7373-0.68652 3.4186-2.3398 5.0719-1.6112 1.5972-3.3065 2.3818-5.0579 2.3398m0.19615-2.5359 2.9983-1.6813 1.6673-2.9843-0.95272-2.592-2.592-0.96674-2.9983 1.6673-1.6813 2.9983 0.96674 2.606 2.592 0.95273"/><path d="m348.86 446.49c1.4571-0.028 2.7461 0.5184 3.8529 1.6112 1.4851 1.5132 2.0736 3.0964 1.7794 4.7496l-1.0648 2.3118-1.8634-1.8774 0.51839-1.4291-0.89668-2.0736-2.3958-0.72856-2.9142 1.7513-1.6673 2.8722 0.79861 2.3118 2.1156 0.79861 1.4992-0.57444 1.8494 1.8634c-1.1349 0.82663-2.3398 1.1909-3.6148 1.1489l-3.4326-1.5972c-1.275-1.275-1.8634-2.6901-1.7654-4.2592 0.11208-1.5412 0.88267-3.0684 2.3398-4.4974 1.5552-1.5692 3.1804-2.3818 4.8617-2.3818"/><path d="m356.67 468.78c-1.373 0.014-2.7041-0.61647-3.979-1.9055-1.289-1.275-1.9195-2.606-1.9055-3.979-0.042-1.7653 0.72856-3.4606 2.3538-5.0579 1.6392-1.6533 3.3205-2.4238 5.0579-2.3538 1.3871-0.014 2.7041 0.61647 3.993 1.8914 1.275 1.289 1.9195 2.62 1.8914 3.993 0.0841 1.7373-0.70053 3.4186-2.3538 5.0579-1.6112 1.6112-3.2925 2.3958-5.0579 2.3538m0.21016-2.5359 2.9843-1.6813 1.6673-2.9843-0.93871-2.606-2.606-0.95273-2.9983 1.6673-1.6673 2.9983 0.95273 2.592 2.606 0.96674"/><path d="m358.49 472.17 1.8354 1.8354 1.8214-1.8214-1.8354-1.8354"/><path d="m413.52 122.56 2.7041 2.6901-7.4117 7.3836 1.8914 1.8914 7.3976-7.3976 2.6901 2.69 1.5832-1.5692-7.2716-7.2716"/><path d="m414.45 138.28 8.9809-8.9809 1.8494 1.8634-3.4186 3.4186 3.5027 3.5027 3.4186-3.4186 1.8634 1.8494-8.9949 8.9809-1.8354-1.8634 4.0071-3.993-3.5167-3.5167-3.993 4.0071"/><path d="m437.36 146.42-4.6235-4.6235-1.9055 1.9054 4.2452 4.2312-1.5552 1.5412-4.2312-4.2312-2.3258 2.3398 4.8477 4.8477-1.5972 1.5972-6.6831-6.6831 8.9668-8.9809 6.4589 6.4589"/><path d="m449.92 157.72-0.95273 1.7794-1.7373 0.9107-1.2049-0.16813 0.2522 1.8214-0.96674 1.6673-1.8354 1.0228-1.331 0.0841-1.4711-0.57444-1.373-1.1349-4.0491-4.0491 8.9809-8.9668 4.3293 4.3293 1.359 3.2785m-5.4502-4.2592-1.9895 1.9755 2.1717 2.1716 1.1769 0.72856 1.1489-0.43433 0.35027-1.303-0.92471-1.2049zm-3.4747 3.4746-2.3958 2.3958 2.1717 2.1576 1.0508 0.75658 1.7093-0.54642 0.40631-1.5272-0.74257-1.0368"/><path d="m444.23 168.04 6.3188 6.3328 1.5832-1.6112-4.4414-4.4414 7.3696-7.3836-1.8634-1.8634"/><path d="m460.8 166.67 1.8914 1.8914-5.4922 5.5062-1.1349 1.5692 0.74257 2.2417 2.2417 0.74257 1.5692-1.1349 5.5062-5.5062 1.8914 1.9054-5.5062 5.5062-2.676 1.7934c-1.5272 0.42032-3.0824-0.15412-4.6235-1.7093-1.5552-1.5412-2.1296-3.0964-1.7093-4.6235l1.7794-2.662"/><path d="m474.72 183.79-4.6095-4.6235-1.9055 1.9054 4.2312 4.2312-1.5552 1.5412-4.2312-4.2312-2.3398 2.3398 4.8477 4.8477-1.5832 1.5972-6.6971-6.6831 8.9809-8.9809 6.4589 6.4589"/><path d="m487.29 195.08-0.95273 1.7794-1.7373 0.9107-1.2049-0.18214 0.2522 1.8354-0.96674 1.6673-1.8214 1.0228-1.345 0.0701-1.4711-0.54642-1.3871-1.1489-4.0351-4.0351 8.9809-8.9809 4.3293 4.3293 1.359 3.2785m-5.4502-4.2592-1.9895 1.9755 2.1857 2.1716 1.1489 0.72856 1.1629-0.42032 0.35027-1.317-0.9107-1.1909zm-3.4747 3.4746-2.3958 2.3958 2.1576 2.1717 1.0648 0.74257 1.7233-0.53241 0.3923-1.5412-0.74257-1.0368"/><path d="m490.55 196.43 1.9055 1.8914-5.5062 5.5062-1.1349 1.5692 0.74257 2.2417 2.2277 0.74257 1.5832-1.1349 5.4922-5.5062 1.9054 1.9054-5.5202 5.5062-2.676 1.7934c-1.5272 0.42032-3.0543-0.14011-4.6235-1.7093-1.5412-1.5412-2.1156-3.0964-1.6953-4.6235l1.7934-2.676"/><path d="m490.58 214.4 1.8494 1.8494 3.7689-3.7689 3.951 3.965 1.5552-1.5552-3.951-3.951 2.0316-2.0456 4.5255 4.5114 1.5832-1.5832-6.3749-6.3749"/><path d="m498.19 222.01 1.8494 1.8494 3.7549-3.7549 3.979 3.965 1.5552-1.5552-3.979-3.965 2.0596-2.0456 4.5114 4.5255 1.5832-1.5972-6.3609-6.3609"/><path d="m516.66 222.53 2.1156 2.1156-5.8144 12.133-2.0316-2.0316 1.247-2.4238-3.2925-3.2925-2.4379 1.2329-1.9475-1.9475zm-5.7164 5.4642 2.2978 2.2838 2.4098-4.6656"/><path d="m514.12 237.94 6.3188 6.3188 1.5972-1.5832-4.4554-4.4694 7.3836-7.3836-1.8774-1.8634"/><path d="m529.42 251.66c-1.373 0.028-2.7041-0.61647-3.979-1.8914-1.289-1.289-1.9195-2.606-1.8914-3.993-0.0561-1.7653 0.72855-3.4466 2.3398-5.0579 1.6392-1.6392 3.3205-2.4238 5.0579-2.3398 1.3871-0.028 2.7041 0.60246 3.993 1.8914 1.275 1.275 1.9054 2.606 1.8914 3.979 0.0841 1.7373-0.71454 3.4186-2.3538 5.0719-1.6112 1.6112-3.2925 2.3818-5.0579 2.3398m0.21016-2.5359 2.9843-1.6813 1.6813-2.9843-0.95272-2.592-2.606-0.96674-2.9983 1.6673-1.6673 2.9983 0.96674 2.606 2.592 0.95273"/><path d="m543.75 251.51c1.4571-0.014 2.7461 0.53241 3.8529 1.6392 1.4851 1.4851 2.0736 3.0684 1.7654 4.7496l-1.0648 2.2838-1.8634-1.8634 0.5324-1.4431-0.89668-2.0596-2.3958-0.74257-2.9142 1.7654-1.6673 2.8722 0.79861 2.2978 2.1016 0.82663 1.5132-0.57444 1.8494 1.8494c-1.1349 0.81262-2.3398 1.2049-3.6148 1.1489l-3.4466-1.6112c-1.275-1.275-1.8494-2.6901-1.7513-4.2452 0.0981-1.5552 0.88267-3.0684 2.3258-4.5114 1.5692-1.5692 3.1944-2.3538 4.8757-2.3818"/><path d="m551.57 273.81c-1.373 0.028-2.7041-0.60246-3.993-1.8914-1.275-1.275-1.9055-2.62-1.8914-3.993-0.042-1.7513 0.72856-3.4466 2.3398-5.0579 1.6533-1.6533 3.3346-2.4238 5.0719-2.3398 1.373-0.028 2.7041 0.60246 3.979 1.8914 1.289 1.275 1.9195 2.606 1.8914 3.979 0.0841 1.7373-0.70053 3.4186-2.3398 5.0719-1.6112 1.5972-3.2925 2.3958-5.0579 2.3398m0.21016-2.5359 2.9843-1.6813 1.6813-2.9843-0.96673-2.592-2.606-0.96674-2.9843 1.6673-1.6673 2.9983 0.95273 2.606 2.606 0.95273"/><path d="m553.38 277.2 1.8354 1.8354 1.8214-1.8214-1.8354-1.8354"/><path d="m405.47 464.54 1.5692 1.5832 2.7041-2.6901 7.3977 7.3836 1.8774-1.8774-7.3836-7.3836 2.69-2.7041-1.5832-1.5832"/><path d="m422.78 465.18-8.9809-8.9809 1.8634-1.8494 3.4186 3.4186 3.5027-3.5027-3.4186-3.4186 1.8494-1.8494 8.9809 8.9668-1.8634 1.8494-4.0071-3.993-3.4887 3.5027 3.993 4.0071"/><path d="m430.94 442.27-4.6375 4.6235 1.9195 1.9055 4.2172-4.2452 1.5412 1.5552-4.2312 4.2312 2.3398 2.3398 4.8337-4.8477 1.5972 1.5972-6.6691 6.6831-8.9809-8.9809 6.4589-6.4589"/><path d="m442.22 429.71 1.7794 0.95273 0.9107 1.7373-0.18214 1.2049 1.8354-0.2522 1.6533 0.96674 1.0368 1.8214 0.0701 1.345-0.56043 1.4711-1.1489 1.373-4.0351 4.0351-8.9668-8.9668 4.3293-4.3293 3.2785-1.359m-4.2592 5.4502 1.9755 1.9895 2.1716-2.1717 0.71455-1.1769-0.42032-1.1489-1.303-0.35027-1.2049 0.9107zm3.4746 3.4747 2.3818 2.3958 2.1717-2.1576 0.74257-1.0788-0.53241-1.7093-1.5272-0.3923-1.0368 0.74257"/><path d="m443.58 426.43 8.9809 8.9809 6.3188-6.3328-1.5972-1.5832-4.4694 4.4414-7.3696-7.3696"/><path d="m451.17 418.84 1.9055-1.8914 5.4922 5.4922 1.5692 1.1349 2.2557-0.74257 0.72856-2.2417-1.1349-1.5692-5.5062-5.5062 1.9054-1.8914 5.5202 5.5202 1.7794 2.662c0.42032 1.5272-0.14011 3.0683-1.7093 4.6235-1.5552 1.5552-3.0824 2.1296-4.6235 1.7093l-2.662-1.7934"/><path d="m468.29 404.91-4.6235 4.6235 1.9054 1.8914 4.2172-4.2312 1.5552 1.5552-4.2172 4.2312 2.3258 2.3398 4.8477-4.8477 1.5972 1.5972-6.6831 6.6831-8.9809-8.9809 6.4589-6.4589"/><path d="m479.58 392.34 1.7794 0.96674 0.9107 1.7373-0.16813 1.1909 1.8214-0.23819 1.6673 0.95273 1.0228 1.8354 0.0841 1.331-0.56043 1.4711-1.1489 1.3871-4.0351 4.0351-8.9668-8.9668 4.3153-4.3433 3.2785-1.359m-4.2592 5.4502 1.9755 1.9895 2.1857-2.1717 0.71454-1.1629-0.43433-1.1629-1.303-0.33626-1.1909 0.9107zm3.4746 3.4887 2.3958 2.3818 2.1717-2.1576 0.74257-1.0648-0.53241-1.7093-1.5272-0.3923-1.0508 0.74257"/><path d="m480.93 389.09 1.8914-1.8914 5.5062 5.4922 1.5692 1.1349 2.2417-0.74257 0.72856-2.2417-1.1209-1.5692-5.5062-5.5062 1.9054-1.8914 5.5062 5.5202 1.7794 2.676c0.42032 1.5132-0.14011 3.0543-1.6953 4.6095-1.5552 1.5552-3.0964 2.1296-4.6375 1.7093l-2.662-1.7934"/><path d="m489.95 380.1 8.9528 8.9528 1.8494-1.8634-3.7549-3.7549 3.951-3.965-1.5552-1.5552-3.951 3.965-2.0456-2.0456 4.5114-4.5114-1.5832-1.5832"/><path d="m497.57 372.5 8.9388 8.9388 1.8494-1.8354-3.7549-3.7689 3.951-3.965-1.5412-1.5552-3.965 3.965-2.0456-2.0596 4.5255-4.5114-1.5972-1.5692"/><path d="m507.03 362.97 2.1156-2.1156 12.119 5.8144-2.0316 2.0316-2.4238-1.247-3.2785 3.2925 1.2189 2.4379-1.9475 1.9475zm5.4502 5.7164 2.2978-2.2838-4.6656-2.4098"/><path d="m513.48 356.54 8.9668 8.9809 6.3328-6.3328-1.6112-1.5832-4.4414 4.4414-7.3836-7.3696"/><path d="m536.17 350.21c0.014 1.373-0.60246 2.7041-1.9055 3.993-1.275 1.275-2.592 1.9055-3.979 1.8914-1.7653 0.056-3.4606-0.72856-5.0579-2.3538-1.6533-1.6392-2.4238-3.3205-2.3398-5.0579-0.028-1.373 0.60246-2.7041 1.8774-3.993 1.289-1.275 2.606-1.9054 3.993-1.8774 1.7373-0.0841 3.4186 0.70053 5.0579 2.3398 1.6112 1.6112 2.3958 3.2925 2.3538 5.0579m-2.5359-0.19615-1.6813-2.9983-2.9843-1.6673-2.606 0.93871-0.95273 2.606 1.6673 2.9983 2.9983 1.6813 2.606-0.96674 0.95273-2.592"/><path d="m536.01 335.88c-0.014-1.4571 0.5184-2.7461 1.6392-3.8529 1.4851-1.4851 3.0684-2.0736 4.7496-1.7794l2.2838 1.0648-1.8634 1.8774-1.4291-0.5324-2.0736 0.89668-0.72856 2.3958 1.7513 2.9142 2.8722 1.6673 2.2978-0.79861 0.82663-2.1156-0.58845-1.4992 1.8634-1.8494c0.81262 1.1349 1.2049 2.3398 1.1489 3.6008-0.042 1.275-0.58845 2.4238-1.6112 3.4466-1.261 1.275-2.6901 1.8634-4.2452 1.7654-1.5552-0.11208-3.0543-0.88267-4.5114-2.3398-1.5692-1.5552-2.3538-3.1804-2.3818-4.8617"/><path d="m558.31 328.06c0.028 1.3871-0.60246 2.7041-1.8914 4.0071-1.275 1.261-2.62 1.9055-3.979 1.8914-1.7794 0.028-3.4606-0.72856-5.0719-2.3398-1.6533-1.6533-2.4238-3.3346-2.3538-5.0859-0.014-1.359 0.61647-2.69 1.8914-3.979 1.289-1.275 2.62-1.9195 3.993-1.8914 1.7373-0.0841 3.4186 0.70053 5.0719 2.3538 1.5972 1.6112 2.3818 3.2925 2.3398 5.0438m-2.5359-0.18214-1.6813-3.0123-2.9843-1.6533-2.592 0.9247-0.96674 2.62 1.6673 2.9843 2.9983 1.6813 2.606-0.95273 0.95273-2.592"/><path d="m559.89 324.43 1.8214 1.8214 1.8354-1.8354-1.8214-1.8214"/><path d="m210.51 269.63 1.5832 1.5832 2.7041-2.6901 7.3696 7.3836 1.8914-1.8774-7.3836-7.3836 2.69-2.7041-1.5832-1.5832"/><path d="m227.81 270.28-8.9809-8.9668 1.8634-1.8634 3.4186 3.4186 3.5027-3.5027-3.4186-3.4186 1.8494-1.8494 8.9809 8.9668-1.8634 1.8634-4.0071-4.0071-3.5027 3.5027 4.0071 4.0071"/><path d="m235.95 247.37-4.6095 4.6235 1.8914 1.8914 4.2312-4.2312 1.5552 1.5552-4.2452 4.2312 2.3398 2.3398 4.8477-4.8477 1.5972 1.5972-6.6831 6.6831-8.9809-8.9809 6.4589-6.4589"/><path d="m247.24 234.8 1.7794 0.96674 0.9107 1.7373-0.18214 1.1909 1.8354-0.23819 1.6673 0.95273 1.0368 1.8354 0.056 1.331-0.54642 1.4711-1.1489 1.3871-4.0491 4.0351-8.9668-8.9809 4.3293-4.3293 3.2785-1.359m-4.2592 5.4502 1.9755 1.9895 2.1716-2.1717 0.72856-1.1629-0.43433-1.1629-1.303-0.35027-1.2049 0.92471zm3.4746 3.4887 2.3958 2.3818 2.1717-2.1576 0.74257-1.0648-0.53241-1.7093-1.5412-0.3923-1.0368 0.74257"/><path d="m248.6 231.54 8.9809 8.9809 6.3188-6.3328-1.6112-1.5832-4.4414 4.4414-7.3836-7.3696"/><path d="m256.2 223.95 1.8914-1.8914 5.5062 5.4922 1.5692 1.1349 2.2557-0.74257 0.72856-2.2417-1.1349-1.5692-5.4922-5.5062 1.8914-1.8914 5.5202 5.5202 1.7794 2.662c0.42032 1.5272-0.14011 3.0683-1.6953 4.6235-1.5692 1.5552-3.0964 2.1296-4.6235 1.7093l-2.676-1.7794"/><path d="m273.32 210.02-4.6095 4.6235 1.8914 1.8914 4.2312-4.2312 1.5552 1.5552-4.2312 4.2312 2.3258 2.3258 4.8617-4.8337 1.5972 1.5832-6.6971 6.6971-8.9668-8.9809 6.4589-6.4589"/><path d="m284.62 197.44 1.7794 0.96674 0.89668 1.7373-0.16812 1.2049 1.8354-0.2522 1.6533 0.96674 1.0368 1.8354 0.0701 1.331-0.56043 1.4711-1.1489 1.3871-4.0351 4.0351-8.9668-8.9809 4.3293-4.3153 3.2785-1.3871m-4.2733 5.4642 1.9895 1.9895 2.1716-2.1716 0.72856-1.1629-0.43433-1.1629-1.303-0.35027-1.2049 0.92471zm3.4887 3.4747 2.3958 2.3958 2.1576-2.1576 0.74257-1.0648-0.53241-1.7093-1.5272-0.40631-1.0368 0.75658"/><path d="m285.96 194.19 1.9055-1.9055 5.4922 5.5062 1.5692 1.1349 2.2557-0.74257 0.72856-2.2417-1.1349-1.5692-5.5062-5.5062 1.9054-1.8914 5.5202 5.5202 1.7794 2.662c0.42032 1.5272-0.14011 3.0683-1.6953 4.6235-1.5692 1.5552-3.1104 2.1296-4.6375 1.7093l-2.662-1.7794"/><path d="m295.01 185.21 8.9248 8.9528 1.8494-1.8494-3.7689-3.7689 3.979-3.965-1.5552-1.5552-3.937 3.965-2.0596-2.0456 4.4974-4.5255-1.5692-1.5692"/><path d="m302.6 177.6 8.9388 8.9388 1.8494-1.8494-3.7549-3.7549 3.965-3.965-1.5552-1.5552-3.965 3.965-2.0456-2.0596 4.5114-4.5114-1.5832-1.5692"/><path d="m312.06 168.09 2.1156-2.1156 12.133 5.8144-2.0316 2.0316-2.4238-1.247-3.2925 3.2925 1.2329 2.4379-1.9475 1.9615zm5.4642 5.7164 2.2838-2.2838-4.6656-2.4098"/><path d="m318.49 161.65 8.9809 8.9809 6.3188-6.3328-1.5972-1.5832-4.4414 4.4414-7.3977-7.3696"/><path d="m341.2 155.31c0.028 1.373-0.61647 2.7041-1.8914 3.993-1.289 1.275-2.606 1.9055-3.993 1.8914-1.7653 0.056-3.4466-0.72856-5.0719-2.3538-1.6252-1.6392-2.4098-3.3205-2.3258-5.0579-0.028-1.373 0.60246-2.7041 1.8914-3.979 1.275-1.289 2.606-1.9195 3.979-1.8914 1.7373-0.0841 3.4186 0.68652 5.0579 2.3398 1.6252 1.6112 2.3958 3.3065 2.3538 5.0579m-2.5359-0.19615-1.6813-2.9983-2.9843-1.6673-2.592 0.95272-0.98075 2.592 1.6813 3.0123 2.9983 1.6533 2.606-0.95273 0.95273-2.592"/><path d="m341.05 140.99c-0.028-1.4571 0.5184-2.7461 1.6392-3.8529 1.4851-1.4851 3.0543-2.0736 4.7496-1.7794l2.2838 1.0648-1.8774 1.8634-1.4291-0.51839-2.0596 0.89668-0.74257 2.3958 1.7654 2.9142 2.8722 1.6673 2.2978-0.79861 0.81262-2.1156-0.57444-1.4992 1.8494-1.8494c0.82663 1.1349 1.2049 2.3398 1.1629 3.6148l-1.6112 3.4326c-1.275 1.275-2.6901 1.8634-4.2452 1.7654-1.5552-0.11208-3.0684-0.88267-4.5114-2.3258-1.5692-1.5692-2.3538-3.1944-2.3818-4.8757"/><path d="m363.34 133.17c0.028 1.373-0.60246 2.7041-1.8914 3.993-1.289 1.275-2.62 1.9055-3.993 1.8914-1.7653 0.042-3.4466-0.74257-5.0579-2.3398-1.6533-1.6533-2.4238-3.3346-2.3398-5.0719-0.028-1.373 0.60246-2.7181 1.8914-3.993 1.275-1.289 2.606-1.9195 3.979-1.8914 1.7373-0.0841 3.4186 0.70053 5.0579 2.3538 1.6112 1.6112 2.4098 3.2925 2.3538 5.0579m-2.5359-0.21016-1.6813-2.9843-2.9843-1.6813-2.606 0.95272-0.95273 2.606 1.6673 2.9983 2.9983 1.6673 2.606-0.95273 0.95273-2.606"/><path d="m364.92 129.53 1.8214 1.8214 1.8354-1.8354-1.8214-1.8214"/><path d="m331.49 337.12-0.46235 0.22417c-0.77059-1.247-1.9615-2.634-3.5447-2.634l-2.0876 2.0876c0 1.373 1.4431 1.9335 2.55 2.2557 1.9895 0.61647 4.0211 1.1489 4.0211 3.6568 0 2.0175-1.5832 3.3486-3.5307 3.3486l-2.4799-0.44834-0.95273 0.44834-1.1489-3.0684 0.47636-0.21016c0.95273 1.275 2.3678 2.7601 4.0071 2.7601 1.2189 0 2.3398-0.81262 2.3398-2.1156 0-3.6568-6.4449-1.8074-6.4449-6.0246 0-1.9755 1.3871-3.2084 3.3345-3.2084l1.261 0.26621 0.85465 0.19615 0.77059-0.30824"/><path d="m338.38 344.79-2.4939 1.289-1.6953-0.81262-0.3923-2.1016v-2.8021l-1.0228-1.1349v-0.37829l2.4098-0.9247v5.6463l1.289 1.6813 1.8914-1.1208v-3.7689l-1.0228-1.1349v-0.37829l2.4098-0.9247v5.8284c0 1.4711 0 1.5692 1.0788 1.6953v0.46236h-2.4519"/><path d="m344.34 346.5c0 1.4851 0 1.5692 1.0508 1.7233v0.44834h-3.5027v-0.44834c1.0648-0.15412 1.0648-0.23819 1.0648-1.7233v-6.1367l-1.0368-1.1349v-0.37828l2.4238-0.93872v1.1208l2.2417-1.0088c1.9615 0 2.9983 2.1156 2.9843 3.8249 0.014 1.9615-0.95273 4.2312-3.2084 4.2312l-2.0175-0.96674zm0-2.0175 1.6813 0.91069c1.7233 0 2.0456-2.1576 2.0456-3.4887 0-1.345-0.40631-3.1944-2.0736-3.1944l-1.6533 0.93872"/><path d="m352.45 341.57c0 1.5412 0.46235 3.8249 2.4238 3.8249l2.578-1.4291 0.28022 0.25219c-0.67252 1.0788-1.7654 1.8494-3.0684 1.8494-2.1997 0-3.8109-1.7934-3.8109-3.951 0-2.0175 1.4151-4.0911 3.6148-4.0911 1.9615 0 3.3205 1.6813 3.3205 3.5447zm3.7549-0.60246c0.0841-1.0788-0.37829-2.4238-1.7513-2.4238-1.345 0-1.8914 1.359-1.9195 2.4238"/><path d="m361.38 343.75c0 1.4851 0 1.5692 1.0508 1.6813v0.47637h-3.4746v-0.47637c1.0368-0.11208 1.0368-0.19615 1.0368-1.6813v-3.3906l-1.0228-1.1349v-0.37829l2.4098-0.93871v1.8774l2.578-1.8774 0.98075 0.9247-0.85465 0.88268-1.261-0.42032-1.4431 1.1769"/><path d="m368.03 343.75c0 1.4851 0 1.5692 1.0648 1.6813v0.47637h-3.5167v-0.47637c1.0648-0.12609 1.0648-0.23818 1.0648-1.6953v-3.3766l-1.0228-1.1349v-0.37829l2.4098-0.93871zm-0.89669-7.4537-1.0508-1.0368 1.0368-1.0648 1.0508 1.0648-1.0368 1.0368"/><path d="m370.36 342.18c0-2.0456 1.359-4.1612 3.5727-4.1612 2.1857 0 3.5027 2.1436 3.5027 4.1472 0 2.0175-1.4992 3.909-3.6008 3.909-2.0035 0-3.4746-1.9615-3.4746-3.895m5.4782-0.30824c0-1.1629-0.36428-3.3345-1.9055-3.3345-1.5832 0-1.9755 2.0876-1.9755 3.2925 0 1.1209 0.35027 3.7268 1.8774 3.7268 1.6393 0 2.0035-2.4799 2.0035-3.6848"/><path d="m381.21 343.75c0 1.4851 0 1.5692 1.0508 1.6813v0.47637h-3.4746v-0.47637c1.0368-0.11208 1.0368-0.19615 1.0368-1.6813v-3.3906l-1.0228-1.1349v-0.37829l2.4098-0.93871v1.8774l2.578-1.8774 0.98075 0.9247-0.85465 0.88268-1.261-0.42032-1.4431 1.1769"/><path d="m398.76 342.95v-5.9125c0-1.7233-0.21016-2.1576-1.4711-2.1576v-0.51839h3.6568v0.51839c-1.247 0-1.4571 0.43434-1.4571 2.1576v8.8548h-0.53241l-6.8232-9.5833v6.9073c0 1.7513 0.19615 2.1576 1.4711 2.1576h-0.014v0.5184h-3.6708v-0.5184c1.261 0 1.4851-0.40631 1.4851-2.1576v-6.1787c0-1.7233-0.22417-2.1576-1.4851-2.1576v-0.51839h2.7461"/><path d="m407.67 344.79-2.4939 1.289-1.6953-0.81262-0.3923-2.1016v-2.8021l-1.0228-1.1349v-0.37829l2.4098-0.9247v5.6463l1.289 1.6813 1.8914-1.1208v-3.7689l-1.0228-1.1349v-0.37829l2.4098-0.9247v5.8284c0 1.4711 0 1.5692 1.0788 1.6953v0.46236h-2.4519"/><path d="m411.09 338.72v-0.37829l2.0035-2.9002h0.53241v2.7601h2.1857v0.5184h-2.1857v4.7776l0.89668 1.7373 1.3871-0.7846 0.25219 0.32224-2.3398 1.303c-1.3871 0-1.5972-1.1349-1.5972-2.2557v-5.0999"/><path d="m418.95 343.75c0 1.4851 0 1.5692 1.0508 1.6813v0.47637h-3.4746v-0.47637c1.0368-0.11208 1.0368-0.19615 1.0368-1.6813v-3.3906l-1.0228-1.1349v-0.37829l2.4098-0.93871v1.8774l2.578-1.8774 0.98075 0.9247-0.85465 0.88268-1.261-0.42032-1.4431 1.1769"/><path d="m425.61 343.75c0 1.4851 0 1.5692 1.0648 1.6813v0.47637h-3.5167v-0.47637c1.0648-0.12609 1.0648-0.23818 1.0648-1.6953v-3.3766l-1.0228-1.1349v-0.37829l2.4098-0.93871zm-0.89669-7.4537-1.0508-1.0368 1.0368-1.0648 1.0508 1.0648-1.0368 1.0368"/><path d="m427.49 338.72v-0.37829l2.0175-2.9002h0.5184v2.7601h2.1997v0.5184h-2.1997v4.7776l0.89668 1.7373 1.3871-0.7846 0.26621 0.32224-2.3398 1.303c-1.3871 0-1.5972-1.1349-1.5972-2.2557v-5.0999"/><path d="m435.41 343.75c0 1.4851 0 1.5692 1.0648 1.6813v0.47637h-3.5167v-0.47637c1.0648-0.12609 1.0648-0.23818 1.0648-1.6953v-3.3766l-1.0228-1.1349v-0.37829l2.4098-0.93871zm-0.89669-7.4537-1.0508-1.0368 1.0368-1.0648 1.0508 1.0648-1.0368 1.0368"/><path d="m437.72 342.18c0-2.0456 1.359-4.1612 3.5727-4.1612 2.1857 0 3.5027 2.1436 3.5027 4.1472 0 2.0175-1.4992 3.909-3.6008 3.909-2.0035 0-3.4746-1.9615-3.4746-3.895m5.4782-0.30824c0-1.1629-0.36428-3.3345-1.9055-3.3345-1.5832 0-1.9895 2.0876-1.9895 3.2925 0 1.1209 0.36428 3.7268 1.8914 3.7268 1.6393 0 2.0035-2.4799 2.0035-3.6848"/><path d="m448.63 343.75c0 1.4851 0 1.5692 1.0508 1.6813v0.47637h-3.5027v-0.47637c1.0648-0.11208 1.0648-0.19615 1.0648-1.6813v-3.3906l-1.0228-1.1349v-0.37829l2.4098-0.93871v1.359l2.4659-1.2329 1.4992 0.61647 0.53241 2.0316v3.0683c0 1.4851 0 1.5692 1.0648 1.6813v0.47637h-3.5307v-0.47637c1.0928-0.11208 1.0928-0.19615 1.0928-1.6813v-2.7741l-1.317-2.1156-1.8074 1.0508"/><path d="m328.31 355.83c0-1.7373-0.21016-2.1576-1.4151-2.1576v-0.51839h3.6008v0.51839c-1.261 0-1.4571 0.42032-1.4571 2.1576v4.8617c0 2.7881-1.275 4.1612-4.0771 4.1612-2.3958 0-3.993-1.261-3.993-3.6988v-5.3241c0-1.7373-0.19615-2.1576-1.3871-2.1576v-0.51839h4.4554v0.51839c-1.303 0-1.5132 0.42032-1.5132 2.1576v4.4274c0 2.0736 0.42032 3.965 2.8862 3.951 2.62 0.014 2.9002-1.9475 2.9002-4.0771"/><path d="m332.65 355.34c0-1.373-0.22417-1.303-1.345-1.3871v-0.46235l2.7321-0.89669v9.9336c0 1.4711 0 1.5692 1.0788 1.6953v0.46235h-3.5167v-0.46235c1.0508-0.1261 1.0508-0.22417 1.0508-1.6953"/><path d="m335.82 357.5v-0.37829l2.0175-2.9002h0.5184v2.7601h2.1997v0.5184h-2.1997v4.7636l0.89668 1.7513 1.3871-0.7846 0.26621 0.32224-2.3398 1.303c-1.3871 0-1.5972-1.1349-1.5972-2.2557v-5.0999"/><path d="m343.74 362.53c0 1.4851 0 1.5692 1.0648 1.6953v0.46235h-3.5167v-0.47637c1.0648-0.12609 1.0648-0.23818 1.0648-1.6953v-3.3766l-1.0228-1.1349v-0.37829l2.4098-0.9247zm-0.89669-7.4537-1.0508-1.0368 1.0368-1.0508 1.0508 1.0508-1.0368 1.0368"/><path d="m348.28 362.53c0 1.4851 0 1.5692 1.0648 1.6953v0.46235h-3.5167v-0.46235c1.0648-0.1261 1.0648-0.21017 1.0648-1.6953v-3.3906l-1.0228-1.1349v-0.37829l2.4098-0.9247v1.5552l2.62-1.4431 1.8634 1.4431 2.7041-1.4431 1.6813 0.86867 0.32224 2.1717v2.676c0 1.4851 0 1.5692 1.0648 1.6953v0.46235h-3.5167v-0.46235c1.0788-0.1261 1.0788-0.21017 1.0788-1.6953v-2.8162l-1.1489-2.0596-2.0736 1.1489v3.7268c0 1.4851 0 1.5692 1.0788 1.6953v0.46235h-3.5167v-0.46235c1.0508-0.1261 1.0508-0.21017 1.0508-1.6953v-2.8162l-1.1909-2.0596-2.0175 1.1489"/><path d="m364.02 359-1.1068-1.6673-1.289 1.1909-0.9107 0.7846-0.74256-0.68653c0-1.303 1.8494-1.8074 2.8722-1.8074l1.9895 0.54642 0.57444 1.7934v3.5867l0.47636 1.0788 0.6445-0.3923 0.19615 0.32225-1.5972 1.1068-1.0788-1.1068-2.5219 1.1068-1.8494-1.8774c0-2.0876 2.7321-2.62 4.3433-2.9422zm0 1.5552c-1.1209 0.19615-2.8442 0.95273-2.8442 2.2557l1.1489 1.2189 1.6953-0.91069"/><path d="m367.13 357.5v-0.37829l2.0175-2.9002h0.5184v2.7601h2.1997v0.5184h-2.1997v4.7636l0.89668 1.7513 1.3871-0.7846 0.26621 0.32224-2.3398 1.303c-1.3871 0-1.5972-1.1349-1.5972-2.2557v-5.0999"/><path d="m374.35 360.35c0 1.5412 0.46235 3.8249 2.4238 3.8249l2.578-1.4291 0.28022 0.25219c-0.67252 1.0788-1.7654 1.8494-3.0543 1.8494-2.2137 0-3.8249-1.7934-3.8249-3.951 0-2.0175 1.4151-4.0911 3.6148-4.0911 1.9615 0 3.3205 1.6813 3.3205 3.5447zm3.7549-0.60246c0.0841-1.0788-0.37829-2.4238-1.7513-2.4238-1.345 0-1.8914 1.359-1.9195 2.4238"/><path d="m388.44 362.01c0 1.7513 0.21016 2.1576 1.4851 2.1576v0.51839h-4.5395v-0.51839c1.289 0 1.4991-0.40631 1.4991-2.1576v-6.1787c0-1.7233-0.21016-2.1576-1.4991-2.1576v-0.51839h5.4642c1.8494 0 3.5447 0.96673 3.5447 2.9983 0 2.5219-2.2978 3.1104-4.5815 3.1104h-1.373zm0-3.2645h0.60246c2.0175 0 3.6988-0.3923 3.6988-2.6901 0-1.6953-1.1489-2.3818-2.7461-2.3818-1.4851 0-1.5552 0.64449-1.5552 1.9475"/><path d="m397.55 362.53c0 1.4851 0 1.5692 1.0508 1.6953v0.46235h-3.4746v-0.46235c1.0368-0.1261 1.0368-0.21017 1.0368-1.6953v-3.3906l-1.0228-1.1349v-0.37829l2.4098-0.9247v1.8634l2.578-1.8634 0.98075 0.91069-0.85465 0.88268-1.261-0.40631-1.4431 1.1629"/><path d="m402.16 360.96c0-2.0456 1.359-4.1612 3.5727-4.1612 2.1857 0 3.5027 2.1436 3.5027 4.1472 0 2.0175-1.4992 3.909-3.6008 3.909-2.0035 0-3.4746-1.9615-3.4746-3.895m5.4782-0.30824c0-1.1629-0.36428-3.3345-1.9055-3.3345-1.5832 0-1.9895 2.0876-1.9895 3.2925 0 1.1209 0.36428 3.7268 1.8914 3.7268 1.6393 0 2.0035-2.4799 2.0035-3.6848"/><path d="m410.41 357.5v-0.37829l2.0175-2.9002h0.5184v2.7601h2.1997v0.5184h-2.1997v4.7636l0.89668 1.7513 1.3871-0.7846 0.26621 0.32224-2.3398 1.303c-1.3871 0-1.5972-1.1349-1.5972-2.2557v-5.0999"/><path d="m417.63 360.35c0 1.5412 0.46235 3.8249 2.4238 3.8249l2.592-1.4291 0.26621 0.25219c-0.67252 1.0788-1.7654 1.8494-3.0543 1.8494-2.2137 0-3.8109-1.7934-3.8109-3.951 0-2.0175 1.4011-4.0911 3.6008-4.0911 1.9615 0 3.3205 1.6813 3.3205 3.5447zm3.7409-0.60246c0.0981-1.0788-0.36428-2.4238-1.7373-2.4238-1.345 0-1.8914 1.359-1.9195 2.4238"/><path d="m431.09 362.81c-0.75658 1.1489-1.8914 2.0456-3.3205 2.0456-2.0596 0-3.5307-1.8774-3.5307-3.8249 0-2.3258 1.5972-4.2172 4.0211-4.2172l2.578 1.6533-0.85466 0.7846c-1.1629 0-0.70053-1.9195-2.2137-1.9195-1.6252 0-1.9335 2.1436-1.9335 3.3486 0 1.4992 0.82663 3.3486 2.578 3.3486l2.4379-1.4431"/><path d="m431.81 357.5v-0.37829l2.0175-2.9002h0.5184v2.7601h2.1997v0.5184h-2.1997v4.7636l0.89668 1.7513 1.3871-0.7846 0.26621 0.32224-2.3398 1.303c-1.3871 0-1.5972-1.1349-1.5972-2.2557v-5.0999"/><path d="m439.72 362.53c0 1.4851 0 1.5692 1.0648 1.6953v0.46235h-3.5167v-0.47637c1.0648-0.12609 1.0648-0.23818 1.0648-1.6953v-3.3766l-1.0228-1.1349v-0.37829l2.4098-0.9247zm-0.89669-7.4537-1.0508-1.0368 1.0368-1.0508 1.0508 1.0508-1.0368 1.0368"/><path d="m442.04 360.96c0-2.0456 1.359-4.1612 3.5727-4.1612 2.1857 0 3.5027 2.1436 3.5027 4.1472 0 2.0175-1.4992 3.909-3.6008 3.909-2.0035 0-3.4746-1.9615-3.4746-3.895m5.4782-0.30824c0-1.1629-0.36428-3.3345-1.9055-3.3345-1.5832 0-1.9895 2.0876-1.9895 3.2925 0 1.1209 0.36428 3.7268 1.8914 3.7268 1.6393 0 2.0035-2.4799 2.0035-3.6848"/><path d="m452.95 362.53c0 1.4851 0 1.5692 1.0508 1.6953v0.46235h-3.5027v-0.46235c1.0648-0.1261 1.0648-0.21017 1.0648-1.6953v-3.3906l-1.0228-1.1349v-0.37829l2.4098-0.9247v1.345l2.4659-1.2329 1.4992 0.61647 0.53241 2.0456v3.0543c0 1.4851 0 1.5692 1.0648 1.6953v0.46235h-3.5307v-0.46235c1.0928-0.1261 1.0928-0.21017 1.0928-1.6953v-2.7601l-1.317-2.1156-1.8074 1.0368"/></g><path d="m387.39 150.07 146.66 146.66-146.66 146.68-146.66-146.68zm0-4.9038-149.12 149.12-2.4659 2.4519 151.58 151.58 149.13-149.12 2.4519-2.4659-149.13-149.12" fill="#42c1db"/><g fill="#fff"><path d="m387.39 135.52 161.21 161.21-161.21 161.21-161.21-161.21zm0-4.9038-166.11 166.11 166.11 166.11 2.4519-2.4519 161.21-161.21 2.4659-2.4519-2.4659-2.4519l-161.21-161.21"/><path d="m283.71 321.43v-2.5219c6.0246 0 7.0054-1.9755 7.0054-10.452v-29.927c0-8.3924-0.98075-10.452-7.0054-10.452v-2.5219h16.547c9.4712 0 26.648-0.5324 26.732 12.904 0.0701 9.6954-8.1822 12.357-16.266 13.506v0.22417c8.4765 0.23818 19.475 4.1332 19.475 14.123 0 11.839-12.68 15.118-22.221 15.118zm19.013-30.768c8.3083 0 16.252-1.5972 16.252-11.671 0-7.9441-6.8792-10.914-13.829-10.914-5.9546 0-6.8793 2.592-6.8793 7.86v14.725zm-4.4554 20.61c0 5.3521 1.317 7.6358 7.2576 7.6358 8.2523 0 15.874-2.9002 15.874-12.287 0-11.447-9.4432-13.436-18.914-13.436h-4.2172"/><path d="m382.41 307.39-5.268 14.053h-39.538v-2.5219c6.2628 0 7.2435-1.9895 7.2435-10.466v-29.913c0-8.3924-0.98075-10.452-7.2435-10.452v-2.5219h22.137v2.5219c-6.3328 0-7.3416 2.0596-7.3416 10.452v31.454c0 6.7111 0.61647 8.9248 8.1822 8.9248 10.228 0 14.725-3.895 19.769-12.442"/><path d="m426.67 278.53c0-8.3924-0.99476-10.438-6.8793-10.438v-2.5359h17.485v2.5359c-6.1087 0-7.0894 2.0456-7.0894 10.438v23.608c0 13.506-6.1927 20.147-19.769 20.147-11.601 0-19.321-6.1227-19.321-17.962v-25.794c0-8.3924-0.99476-10.438-6.7111-10.438v-2.5359h21.604v2.5359c-6.3468 0-7.3276 2.0456-7.3276 10.438v21.45c0 10.074 1.9755 19.251 13.969 19.167 12.666 0.0841 14.039-9.4572 14.039-19.769"/><path d="m476.59 303.41h-2.2137c0.07-9.7514-6.487-10.214-12.512-9.8355h-3.1384v17.639c0 6.1787 0.84064 7.7059 7.7759 7.7059 12.456 0 14.669-3.1244 22.305-12.75l1.8354 0.77059-5.6603 14.501h-40.911v-2.5219c6.0246 0 7.1034-1.9895 7.1034-10.452v-29.927c0-8.4064-1.0788-10.452-7.1034-10.452v-2.5359h39.916l5.3521 13.072-1.9055 1.1209c-6.7251-8.9108-9.2471-11.657-20.47-11.657-7.7759 0-8.2383 1.2049-8.2383 8.7006v14.249h3.1384c7.1735 0 12.063-1.275 12.582-9.5133h2.1436"/><path d="m486.59 265.56v0.79861h1.2329v3.5307h0.9107v-3.5307h1.2329v-0.79861"/><path d="m493.59 265.56-0.9107 2.9703h-0.014l-0.95272-2.9703h-1.275v4.3293h0.84064v-3.0403h0.014l1.0088 3.0403h0.70053l1.0088-3.0684h0.014v3.0684h0.84064v-4.3293"/></g></g></svg>