<?xml version="1.0" encoding="utf-8"?>
<!-- Generator: Adobe Illustrator 19.0.0, SVG Export Plug-In . SVG Version: 6.00 Build 0)  -->
<svg version="1.1" id="layer" xmlns="http://www.w3.org/2000/svg" xmlns:xlink="http://www.w3.org/1999/xlink" x="0px" y="0px"
	 viewBox="-153 -46 652 652" style="enable-background:new -153 -46 652 652;" xml:space="preserve">
<style type="text/css">
	.st0{fill:#009944;}
</style>
<path class="st0" d="M-110.9,209.5c-10.9-0.1-20.4,8.4-20.4,18.9v92.3c0.1,5.2,2.2,10.1,6,13.7c3.7,3.9,9,5.9,14.3,5.6
	c10.7-0.2,19.5-8.5,20.2-19.2v-92.2c0-10.5-9.3-19.1-20.3-19.1 M191.2,310.5l-12.4-78.9c-1.5-9.3-5.1-21.7-20.5-21.8
	c-13.8,0-15.8,4.6-23,18.6l-17.1,40.5l-17-40.5c-7.2-14-9.2-18.7-23-18.6c-15.5,0.1-19.1,12.5-20.6,21.8l-12.4,78.9
	c-0.3,2-0.4,4.2-0.7,6.3C43,328.1,52.8,339,65.1,339c15.7,0,18.9-12,19.8-16l5.3-26.2l9.7,25.4c3.6,7,7.7,16.9,18.3,16.9
	s15.2-10,18.6-16.9l10-26.1l4.7,27c0.8,3.8,4,16.2,19.8,16c12.2,0,22.4-10.9,20.6-22.3C191.6,314.7,191.5,312.6,191.2,310.5
	 M253.3,254.7c-3.5-1.3-7.8-5.1-6.7-8.9c1.2-3.9,5.4-6.1,9.3-4.9c4.3,1,7.6,4.5,11.1,7.1c5.7,4.2,13.2,6.5,20,2.6
	c6.8-3.9,8.5-13,5.3-20.3c-4.5-10.2-14.3-15.6-24.2-18.3c-15.6-3.7-41.4-5-55.3,16.2c-4.3,6.2-8.9,24.3-1.8,38.4
	c6.8,14.6,23.7,19.3,38.1,23.4c4.4,1.3,10.6,4.3,8.8,9.7c-1.2,4-5.1,4.9-8.7,4.6c-5.8-0.4-10-4.3-14.7-7.4c-5-3.6-11-5.5-17.2-5.7
	c-12.4,0.1-17.9,14.7-14.3,25.3c1,3.2,2.8,6.2,5.1,8.6c2.1,2,4.3,3.8,6.6,5.5c16,12.3,50.6,14.4,69.6-0.2
	c8.3-6.6,13.1-16.9,14.2-28.7c2.2-29.6-23.9-38.6-45.4-46.9 M357.2,254.4c23.7-0.3,43.2,18.7,43.5,42.4s-18.7,43.2-42.4,43.5
	c-23.7,0.3-43.2-18.7-43.5-42.4v-0.5C314.6,273.8,333.6,254.6,357.2,254.4 M335.2,250.2c11.4,0.1,20.6-9.1,20.7-20.4
	c0.1-11.4-9.1-20.6-20.4-20.7c-11.4-0.1-20.6,9.1-20.7,20.4l0,0C314.7,240.8,323.9,250,335.2,250.2 M384.3,250.5
	c11.2,0.1,20.4-8.8,20.5-20c0.1-11.2-8.8-20.4-20-20.5c-11.2-0.1-20.4,8.8-20.5,20c0,0.1,0,0.2,0,0.2l0,0
	c-0.1,11.1,8.8,20.1,19.8,20.2c0,0,0,0,0,0L384.3,250.5 M440.9,262.9c-0.1-11.1-9.1-20.1-20.3-20c-11.1,0.1-20.1,9.1-20,20.3
	c0.1,11.1,9.1,20.1,20.3,20c11-0.1,20-9,20-20V262.9 M429.1,289.8c-11.4-0.2-20.8,9-21,20.4c-0.2,11.4,9,20.8,20.4,21
	c11.4,0.2,20.8-9,21-20.4v-0.3C449.5,299.1,440.4,289.9,429.1,289.8 M34.5,311.6l-31.1-74c-5.3-13.6-9.7-27.7-26.3-27.7
	c-17,0-21.3,14.5-26.9,27.9l-30.4,73.8c-4.8,12.6-1.1,22.5,9.5,27s21.3-0.5,26.4-12l6.6-13.6h31l5.6,13.6
	c4.1,11.6,15.4,16.6,26.1,12s14.2-14.4,9.5-27L34.5,311.6z M-23.1,293.3c-5.7,0.1-10.5-4.5-10.5-10.3c-0.1-5.7,4.5-10.5,10.3-10.5
	c5.7-0.1,10.5,4.5,10.5,10.3v0.2C-12.8,288.6-17.4,293.3-23.1,293.3C-23.1,293.3-23.1,293.3-23.1,293.3L-23.1,293.3 M449.8,282.6
	h-3.3v-2.2h9.1v2.2h-3.3v8.6h-2.5L449.8,282.6z M457.9,280.5h2.6l2.8,4.6l2.8-4.6h2.5v10.7h-2.3v-7.3l-3,4.7h-0.2l-3-4.7v7.3h-2.4
	V280.5z"/>
</svg>
