<?xml version="1.0" encoding="utf-8"?>
<!-- Generator: Adobe Illustrator 26.0.3, SVG Export Plug-In . SVG Version: 6.00 Build 0)  -->
<svg version="1.0" id="Layer_1" xmlns="http://www.w3.org/2000/svg" xmlns:xlink="http://www.w3.org/1999/xlink" x="0px" y="0px"
	 viewBox="0 0 900 606.8" style="enable-background:new 0 0 900 606.8;" xml:space="preserve">
<style type="text/css">
	.st0{fill:#E2001A;}
</style>
<path class="st0" d="M405.2,413.4H385c-0.5,0-1-0.5-1-1v-61c0.3-1.1,0.3-2.3,0-3.4c-0.9-5.8-6.4-9.7-12.1-8.8s-9.7,6.4-8.8,12.1
	v76.1c0.1,3.2,2.5,5.8,5.7,6.1h37.4c5.4-0.4,9.5-5,9.1-10.4C415.3,416.8,410.9,413.1,405.2,413.4z M332.1,344.3l-53.9,72.8
	c-1.4,1.7-2.1,3.9-2,6.1c-0.1,3.3,1.6,6.4,4.4,8.1c4.4,3,10.4,2.1,13.8-2l10.4-14.1h25.3v8.1c0.3,5.7,5.1,10.1,10.5,9.8l0,0
	c5.4,0,9.8-4.4,9.8-9.8v-72.1c0-2.9-1.2-5.8-3.4-7.8c-4-3.8-10.3-3.8-14.1,0.2C332.5,343.8,332.3,344.1,332.1,344.3L332.1,344.3z
	 M329.7,394.5h-9.4c-0.4,0-0.6-0.3-0.7-0.7l0,0l10.1-13.8V394.5z M302.4,351.4c0-5.3-4.2-9.6-9.4-9.8c-2.6,0-5.1,0.9-7.1,2.7
	L263,368.3c-0.3,0.3-0.6,0.4-1,0.3c-0.3,0-0.7,0-0.7-0.3l-22.9-23.9c-1.9-1.9-4.4-2.9-7.1-3c-5.2,0-9.4,4.2-9.4,9.4c0,0,0,0,0,0
	c0.1,2.4,0.9,4.8,2.4,6.7l28,32l0.3,33.7c0,5.4,4.4,9.8,9.8,9.8s9.8-4.4,9.8-9.8c0,0,0,0,0,0l0.7-33.4l27.3-32
	C301.6,356.1,302.4,353.8,302.4,351.4z M184.2,341.3c-25.3,0.4-45.5,21.2-45.1,46.5c0.4,24.8,20.4,44.8,45.1,45.1
	c25.3,0,45.8-20.9,45.8-46.2C230,362.2,209.4,341.7,184.2,341.3z M184.2,411.4c-13.6,0-24.6-11-24.6-24.6c0-13.6,11-24.6,24.6-24.6
	c13.6,0,24.6,11,24.6,24.6c0.2,13.4-10.6,24.4-24,24.6C184.6,411.4,184.4,411.4,184.2,411.4L184.2,411.4z M667.7,339.3
	c-5,0.3-9.1,4.4-9.1,9.1v42.8c0,0.4-0.3,0.7-0.7,0.7c-0.3,0-0.3,0-0.3-0.3l-24.9-44.1c-3.7-6.4-11.8-8.7-18.3-5.1
	c-0.2,0.1-0.4,0.2-0.6,0.3c-3.8,2.5-6.3,6.6-6.8,11.1v70.1c0.6,5.5,5.5,9.5,11,8.8c4.7-0.5,8.3-4.2,8.8-8.8v-42.8
	c0-0.4,0.3-0.7,0.7-0.7c0.3,0,0.3,0,0.3,0.3l25.6,45.1c3.4,6.4,11.5,8.4,17.9,5.1c4.1-2.2,6.7-6.5,6.7-11.1v-71.1
	c-0.2-5.5-4.9-9.7-10.3-9.4C667.7,339.3,667.7,339.3,667.7,339.3z M122.2,395.6c8.1-5,13.5-13.8,13.1-23.2V372
	c0.2-16.6-13-30.3-29.6-30.7c-8.2-0.8-16.3,2.1-22.2,7.8c-6.4,6.4-8.4,14.5-8.4,23.2l1.3,50.9c0,5.4,4.4,9.8,9.8,9.8
	s9.8-4.4,9.8-9.8l0.3-24.3l0,0c-0.1-0.5,0.3-0.9,0.8-1c0.1,0,0.2,0,0.2,0h0.7l23.9,32.7c1.7,1.7,4,2.5,6.4,2.4
	c5.2-0.1,9.5-4.2,9.8-9.4c0-1.5-0.4-3-1-4.4L122.2,395.6z M105,381.4h-1.7c-5.4-0.4-9.5-5-9.1-10.4s5-9.5,10.4-9.1h1.7
	c5.4,0.4,9.5,5,9.1,10.4c0,0,0,0,0,0.1C115.1,377.7,110,382.8,105,381.4z M512.3,402.3c-1.6,0-3.2,0.4-4.7,1l-8.1,5.4
	c-4,2.4-8.5,3.7-13.1,3.7c-13.9-0.6-24.6-12.4-24-26.2c0.6-13,11-23.4,24-24c4.6,0,9.2,1.3,13.1,3.7l7.8,5.4c5,2.4,11,0.3,13.5-4.7
	c0.6-1.3,1-2.7,1-4.1l0,0c0-2.4-0.8-4.6-2.4-6.4c-7.9-9.2-19.5-14.5-31.7-14.5c-25.3,0-45.8,20.5-45.8,45.8l0,0
	c0,24.3,18.9,44.4,43.1,45.8c13,0,25.4-5.4,34.4-14.8c1.5-1.8,2.3-4.1,2-6.4C522.4,406.7,517.7,402.3,512.3,402.3L512.3,402.3z
	 M699.7,339c-5.8,0-10.4,4.7-10.5,10.4v73.8c0.2,5.8,5,10.3,10.8,10.1c5.5-0.2,10-4.6,10.1-10.1v-73.8c0.1-5.7-4.4-10.4-10.1-10.5
	C699.9,339,699.8,339,699.7,339L699.7,339z M546.4,344c-2.2-2.1-5.1-3.3-8.1-3.4c-6.1,0-10.4,2.7-10.4,8.8v73.8l0,0
	c0,5.4,4.5,9.8,9.9,9.8c0.1,0,0.1,0,0.2,0c5.5-0.1,10-4.3,10.4-9.8v-8.1h25.3l10.5,14.1c1.7,2.4,5,3.7,8.1,3.7
	c5.4,0,9.8-4.4,9.8-9.8l0,0c0-2.2-0.7-4.3-2-6.1L546.4,344z M558.5,393.9c0,0.4-0.3,0.7-0.7,0.7h-9.4v-15.1l10.1,14.1
	C558.8,393.5,558.8,393.5,558.5,393.9L558.5,393.9z M782.2,339.3c-5,0.3-9.1,4.4-9.1,9.1v42.8c0,0.4-0.3,0.7-0.7,0.7
	c-0.3,0-0.3,0-0.7-0.3l-24.6-44.1c-3.7-6.5-11.9-8.7-18.3-5.1c-0.2,0.1-0.4,0.2-0.6,0.3c-3.8,2.5-6.3,6.6-6.7,11.1v70.1
	c0,5.6,4.5,10.1,10.1,10.1c5.5-0.1,10-4.6,10.1-10.1v-42.8c0-0.4,0.3-0.6,0.7-0.7c0.3,0,0.3,0,0.3,0.3l25.6,45.1
	c3.4,6.4,11.5,8.4,17.8,5.1c4.1-2.2,6.7-6.5,6.8-11.1v-71.1C792.3,343.3,787.6,339,782.2,339.3L782.2,339.3z M818.6,347.7V347
	c0-2.7-2-3.4-4.4-3.4h-3c-1,0-1.3,0.7-1.3,1v9.1c0,1,0.3,1.4,1.3,1.4c0.7,0.1,1.3-0.4,1.3-1.1c0-0.1,0-0.2,0-0.2v-3.4h0.7l1.7,3.4
	c0.3,0.7,0.7,1.4,1.7,1.4s1.3-0.3,1.3-1v-0.7l-2-3C817.2,350.8,818.6,349.1,818.6,347.7L818.6,347.7z M814.6,348.4h-2v-2.7h2
	c1,0,1.7,0.3,1.7,1.4S815.6,348.4,814.6,348.4L814.6,348.4z M814.3,338.6L814.3,338.6c-6,0-10.8,4.8-10.8,10.8
	c0,6,4.8,10.8,10.8,10.8c5.9,0,10.8-4.8,10.8-10.8C824.7,343.7,820,338.6,814.3,338.6L814.3,338.6z M814.3,357.5L814.3,357.5
	c-4.5,0-8.1-3.6-8.1-8c0-4.5,3.6-8.1,8-8.1c4.5,0,8.1,3.6,8.1,8c0,0,0,0,0,0.1C822.2,353.8,818.7,357.4,814.3,357.5L814.3,357.5z"/>
<path class="st0" d="M522.1,292.1c-21.6-15.8-53.9-25.3-87.3-25.3s-66,9.4-87.3,25.3c-2,1.5-3.1,3.9-3,6.4c-0.2,4.3,3.2,7.9,7.5,8.1
	c0.2,0,0.4,0,0.6,0l0,0c1.8-0.1,3.5-0.7,5-1.7c14.5-10.8,42.5-22.2,77.8-22.2s63,11.5,77.5,22.2l0.3,0.3c3.4,2.4,8.8,1.7,11.1-2
	C526.5,299.5,525.8,294.5,522.1,292.1z M434.8,286.1c-31,0-60.3,9.1-78.5,24.3H356c-2,2.1-2.3,5.3-0.7,7.8c1,1.4,2.7,2.1,4.4,2
	c1.3,0.1,2.5-0.4,3.4-1.4c16.2-13.5,43.1-21.9,71.4-21.9s54.9,8.1,71.4,21.9c2.3,2,5.8,1.7,7.8-0.7s1.7-5.8-0.7-7.8l0,0
	C494.8,295.5,465.5,286.1,434.8,286.1z M334.4,227.8c2.4-9.8-3.4-19.5-13.5-22.6c-1.5-0.4-3.1-0.6-4.7-0.7c-10,0.2-18,8.6-17.8,18.6
	c0.2,9.7,8.1,17.5,17.8,17.8C324.7,241.7,332.5,236.1,334.4,227.8z M434.8,256.1c10.1,0,18.2-8.1,18.2-18.2s-8.1-18.2-18.2-18.2
	c-10.1,0-18.2,8.1-18.2,18.2c0,0,0,0,0,0c-0.2,9.9,7.7,18,17.6,18.2C434.5,256.1,434.6,256.1,434.8,256.1L434.8,256.1z M434.8,209.6
	c10,0,18.1-8.1,18.2-18.1c0,0,0-0.1,0-0.1c0.1-10.1-8.1-18.4-18.2-18.5c-10,0-18.2,8-18.2,18c0,0.1,0,0.1,0,0.2
	c-0.4,9.8,7.2,18.1,17.1,18.5C434.1,209.6,434.5,209.6,434.8,209.6L434.8,209.6z M380.9,226.1c-9.8,2.9-15.5,13.1-12.8,22.9
	c2,7.8,9.4,13.1,17.5,13.5h0.4c1.6-0.1,3.2-0.3,4.7-0.7c9.7-2.8,15.5-12.7,13.1-22.6c-2.1-8.1-9.4-13.8-17.9-13.8
	C384.3,225.4,382.6,225.7,380.9,226.1z M358,267.5c2.4-9.8-3.4-20.2-13.5-22.6c-1.5-0.4-3.1-0.6-4.7-0.7l0,0
	c-3.3,0.1-6.5,0.9-9.4,2.4c-8.7,5.2-11.6,16.4-6.4,25.1c0,0,0.1,0.1,0.1,0.1c3,5.7,9.1,8.8,15.8,9.1c3.3,0.1,6.6-0.7,9.4-2.4
	C353.7,276.4,356.8,272.3,358,267.5z M479,261.5c1.6,0.4,3.3,0.6,5,0.7c10-0.1,18.1-8.2,18.2-18.2c0-8.2-5.5-15.4-13.4-17.5
	c-1.7-0.4-3.4-0.6-5.1-0.7c-10.1,0.1-18.3,8.4-18.2,18.5C465.2,252,470.9,259.4,479,261.5z M491.1,217c1.6,0.4,3.3,0.7,5,0.7
	c10-0.1,18.1-8.2,18.2-18.2c0-8.2-5.5-15.4-13.5-17.5c-1.7-0.4-3.4-0.6-5.1-0.7c-10.1,0.1-18.3,8.4-18.2,18.5
	C477.6,207.2,483.4,214.6,491.1,217L491.1,217z M539,247c-2.8-1.6-5.9-2.4-9.1-2.4c-10,0-18.1,8-18.2,18c0,0.1,0,0.1,0,0.2
	c0.1,1.6,0.3,3.2,0.7,4.7c1.2,4.7,4.2,8.7,8.4,11.1c8.8,5.4,20.2,2,25.3-6.7c2.3-4.3,3.1-9.3,2-14.1C546,253.5,542.9,249.7,539,247
	L539,247z M571,218.7c-1.2-4.7-4.2-8.7-8.4-11.1c-8.8-5.4-20.2-2-25.3,6.7c-2.3,4.3-3,9.3-2,14.1c1.2,4.7,4.2,8.7,8.4,11.1
	c8.6,5.2,19.8,2.5,25.1-6c0.1-0.1,0.1-0.2,0.2-0.4C571.6,228.4,572.3,222.7,571,218.7L571,218.7z M373.9,217.7L373.9,217.7
	c1.7-0.1,3.4-0.3,5.1-0.7c9.7-2.8,15.5-12.8,13.1-22.6c-2.1-8-9.3-13.5-17.5-13.5c-1.7,0.1-3.4,0.3-5.1,0.7
	c-9.7,2.8-15.4,12.8-13.1,22.6C358.4,212.1,365.6,217.7,373.9,217.7L373.9,217.7z"/>
</svg>
